<svg xmlns="http://www.w3.org/2000/svg" xmlns:xlink="http://www.w3.org/1999/xlink" width="500" zoomAndPan="magnify" viewBox="0 0 375 374.999991" height="500" preserveAspectRatio="xMidYMid meet" version="1.0"><defs><g/></defs><rect x="-37.5" width="450" fill="#ffffff" y="-37.499999" height="449.999989" fill-opacity="1"/><rect x="-37.5" width="450" fill="#ffffff" y="-37.499999" height="449.999989" fill-opacity="1"/><g fill="#bc9c22" fill-opacity="1"><g transform="translate(180.409797, 279.721256)"><g><path d="M 54 -125.078125 C 49.632812 -124.835938 46.453125 -124.351562 44.453125 -123.625 C 42.453125 -122.894531 41.085938 -121.5 40.359375 -119.4375 C 39.628906 -117.375 39.265625 -114.039062 39.265625 -109.4375 L 39.265625 -19.265625 C 39.265625 -14.660156 39.628906 -11.328125 40.359375 -9.265625 C 41.085938 -7.210938 42.453125 -5.820312 44.453125 -5.09375 C 46.453125 -4.363281 49.632812 -3.878906 54 -3.640625 L 54 0 C 48.414062 -0.363281 40.71875 -0.546875 30.90625 -0.546875 C 20.476562 -0.546875 12.722656 -0.363281 7.640625 0 L 7.640625 -3.640625 C 12.003906 -3.878906 15.179688 -4.363281 17.171875 -5.09375 C 19.171875 -5.820312 20.535156 -7.210938 21.265625 -9.265625 C 21.992188 -11.328125 22.359375 -14.660156 22.359375 -19.265625 L 22.359375 -109.4375 C 22.359375 -114.039062 21.992188 -117.375 21.265625 -119.4375 C 20.535156 -121.5 19.171875 -122.894531 17.171875 -123.625 C 15.179688 -124.351562 12.003906 -124.835938 7.640625 -125.078125 L 7.640625 -128.71875 C 12.722656 -128.351562 20.476562 -128.171875 30.90625 -128.171875 C 40.601562 -128.171875 48.300781 -128.351562 54 -128.71875 Z M 54 -125.078125 "/></g></g></g><g fill="#bc9c22" fill-opacity="1"><g transform="translate(78.754167, 216.695153)"><g><path d="M 67.453125 -131.25 C 74.722656 -131.25 80.898438 -130.21875 85.984375 -128.15625 C 91.078125 -126.101562 96.046875 -123.195312 100.890625 -119.4375 C 102.222656 -118.34375 103.375 -117.796875 104.34375 -117.796875 C 106.769531 -117.796875 108.347656 -121.4375 109.078125 -128.71875 L 113.265625 -128.71875 C 112.773438 -120.832031 112.53125 -106.894531 112.53125 -86.90625 L 108.34375 -86.90625 C 107.007812 -94.78125 105.796875 -100.441406 104.703125 -103.890625 C 103.617188 -107.347656 101.804688 -110.65625 99.265625 -113.8125 C 95.628906 -118.53125 90.992188 -122.070312 85.359375 -124.4375 C 79.722656 -126.800781 73.628906 -127.984375 67.078125 -127.984375 C 59.203125 -127.984375 52.320312 -125.375 46.4375 -120.15625 C 40.5625 -114.945312 35.988281 -107.523438 32.71875 -97.890625 C 29.445312 -88.253906 27.8125 -76.957031 27.8125 -64 C 27.8125 -50.78125 29.566406 -39.441406 33.078125 -29.984375 C 36.597656 -20.535156 41.476562 -13.359375 47.71875 -8.453125 C 53.957031 -3.546875 61.019531 -1.09375 68.90625 -1.09375 C 74.957031 -1.09375 80.832031 -2.242188 86.53125 -4.546875 C 92.226562 -6.847656 96.710938 -10.300781 99.984375 -14.90625 C 102.410156 -18.300781 104.164062 -21.9375 105.25 -25.8125 C 106.34375 -29.6875 107.375 -35.625 108.34375 -43.625 L 112.53125 -43.625 C 112.53125 -22.78125 112.773438 -8.238281 113.265625 0 L 109.078125 0 C 108.710938 -3.875 108.195312 -6.628906 107.53125 -8.265625 C 106.863281 -9.898438 105.925781 -10.71875 104.71875 -10.71875 C 103.75 -10.71875 102.472656 -10.234375 100.890625 -9.265625 C 95.441406 -5.390625 90.234375 -2.453125 85.265625 -0.453125 C 80.296875 1.546875 74.296875 2.546875 67.265625 2.546875 C 55.753906 2.546875 45.664062 -0.0546875 37 -5.265625 C 28.332031 -10.484375 21.601562 -18.03125 16.8125 -27.90625 C 12.03125 -37.78125 9.640625 -49.566406 9.640625 -63.265625 C 9.640625 -76.597656 12.09375 -88.414062 17 -98.71875 C 21.90625 -109.019531 28.75 -117.015625 37.53125 -122.703125 C 46.320312 -128.398438 56.296875 -131.25 67.453125 -131.25 Z M 67.453125 -131.25 "/></g></g></g><g fill="#141414" fill-opacity="1"><g transform="translate(109.799575, 246.714707)"><g><path d="M 3.390625 -4.921875 C 3.429688 -4.878906 3.445312 -4.832031 3.4375 -4.78125 C 3.425781 -4.726562 3.398438 -4.6875 3.359375 -4.65625 C 3.316406 -4.625 3.269531 -4.609375 3.21875 -4.609375 C 3.164062 -4.617188 3.117188 -4.644531 3.078125 -4.6875 C 3.078125 -4.695312 3.050781 -4.726562 3 -4.78125 C 2.945312 -4.832031 2.867188 -4.882812 2.765625 -4.9375 C 2.671875 -5 2.554688 -5.035156 2.421875 -5.046875 C 2.296875 -5.066406 2.148438 -5.039062 1.984375 -4.96875 C 1.765625 -4.875 1.570312 -4.71875 1.40625 -4.5 C 1.25 -4.28125 1.113281 -4.03125 1 -3.75 C 0.882812 -3.476562 0.796875 -3.210938 0.734375 -2.953125 C 0.703125 -2.773438 0.675781 -2.570312 0.65625 -2.34375 C 0.632812 -2.113281 0.625 -1.882812 0.625 -1.65625 C 0.632812 -1.425781 0.660156 -1.210938 0.703125 -1.015625 C 0.742188 -0.816406 0.816406 -0.660156 0.921875 -0.546875 C 1.023438 -0.410156 1.15625 -0.34375 1.3125 -0.34375 C 1.457031 -0.34375 1.585938 -0.378906 1.703125 -0.453125 C 1.828125 -0.523438 1.9375 -0.613281 2.03125 -0.71875 C 2.132812 -0.832031 2.21875 -0.941406 2.28125 -1.046875 C 2.34375 -1.148438 2.390625 -1.238281 2.421875 -1.3125 C 2.460938 -1.382812 2.484375 -1.421875 2.484375 -1.421875 C 2.503906 -1.472656 2.535156 -1.507812 2.578125 -1.53125 C 2.628906 -1.550781 2.679688 -1.554688 2.734375 -1.546875 C 2.785156 -1.523438 2.820312 -1.488281 2.84375 -1.4375 C 2.863281 -1.382812 2.863281 -1.332031 2.84375 -1.28125 C 2.832031 -1.269531 2.804688 -1.21875 2.765625 -1.125 C 2.722656 -1.039062 2.660156 -0.929688 2.578125 -0.796875 C 2.492188 -0.671875 2.390625 -0.539062 2.265625 -0.40625 C 2.148438 -0.28125 2.007812 -0.175781 1.84375 -0.09375 C 1.6875 -0.0078125 1.507812 0.03125 1.3125 0.03125 C 1.03125 0.03125 0.796875 -0.078125 0.609375 -0.296875 C 0.472656 -0.472656 0.375 -0.6875 0.3125 -0.9375 C 0.257812 -1.195312 0.234375 -1.460938 0.234375 -1.734375 C 0.234375 -2.003906 0.25 -2.253906 0.28125 -2.484375 C 0.3125 -2.722656 0.34375 -2.910156 0.375 -3.046875 C 0.394531 -3.148438 0.4375 -3.304688 0.5 -3.515625 C 0.5625 -3.722656 0.648438 -3.941406 0.765625 -4.171875 C 0.878906 -4.410156 1.019531 -4.632812 1.1875 -4.84375 C 1.363281 -5.0625 1.578125 -5.222656 1.828125 -5.328125 C 2.023438 -5.410156 2.203125 -5.445312 2.359375 -5.4375 C 2.523438 -5.4375 2.675781 -5.40625 2.8125 -5.34375 C 2.957031 -5.289062 3.078125 -5.222656 3.171875 -5.140625 C 3.265625 -5.066406 3.335938 -4.992188 3.390625 -4.921875 Z M 3.390625 -4.921875 "/></g></g></g><g fill="#141414" fill-opacity="1"><g transform="translate(118.865014, 246.714707)"><g><path d="M 3.40625 -3.984375 C 3.5 -3.117188 2.695312 -2.566406 1 -2.328125 L 2.75 -0.328125 C 2.789062 -0.285156 2.804688 -0.238281 2.796875 -0.1875 C 2.796875 -0.132812 2.773438 -0.0859375 2.734375 -0.046875 C 2.691406 -0.015625 2.644531 0 2.59375 0 C 2.539062 -0.0078125 2.5 -0.0351562 2.46875 -0.078125 L 0.734375 -2.03125 L 0.4375 -0.171875 C 0.414062 -0.0546875 0.351562 0 0.25 0 C 0.238281 0 0.226562 0 0.21875 0 C 0.164062 -0.0078125 0.125 -0.0351562 0.09375 -0.078125 C 0.0625 -0.128906 0.0507812 -0.179688 0.0625 -0.234375 L 0.859375 -5.109375 C 0.878906 -5.203125 0.941406 -5.253906 1.046875 -5.265625 C 1.054688 -5.265625 1.117188 -5.257812 1.234375 -5.25 C 1.347656 -5.25 1.488281 -5.238281 1.65625 -5.21875 C 1.832031 -5.207031 2.015625 -5.175781 2.203125 -5.125 C 2.398438 -5.070312 2.582031 -5 2.75 -4.90625 C 2.925781 -4.8125 3.070312 -4.6875 3.1875 -4.53125 C 3.3125 -4.382812 3.382812 -4.203125 3.40625 -3.984375 Z M 0.84375 -2.6875 C 1.113281 -2.71875 1.382812 -2.765625 1.65625 -2.828125 C 1.925781 -2.890625 2.164062 -2.972656 2.375 -3.078125 C 2.59375 -3.179688 2.757812 -3.300781 2.875 -3.4375 C 3 -3.582031 3.050781 -3.753906 3.03125 -3.953125 C 3.007812 -4.109375 2.945312 -4.238281 2.84375 -4.34375 C 2.75 -4.457031 2.628906 -4.546875 2.484375 -4.609375 C 2.335938 -4.679688 2.179688 -4.734375 2.015625 -4.765625 C 1.859375 -4.804688 1.707031 -4.832031 1.5625 -4.84375 C 1.414062 -4.863281 1.296875 -4.878906 1.203125 -4.890625 Z M 0.84375 -2.6875 "/></g></g></g><g fill="#141414" fill-opacity="1"><g transform="translate(128.104498, 246.714707)"><g><path d="M 3.53125 -5.203125 C 3.570312 -5.203125 3.613281 -5.179688 3.65625 -5.140625 C 3.695312 -5.109375 3.71875 -5.066406 3.71875 -5.015625 C 3.71875 -4.960938 3.695312 -4.914062 3.65625 -4.875 C 3.613281 -4.84375 3.570312 -4.828125 3.53125 -4.828125 L 1.1875 -4.828125 L 0.828125 -2.65625 L 2.984375 -2.65625 C 3.035156 -2.65625 3.078125 -2.632812 3.109375 -2.59375 C 3.148438 -2.5625 3.171875 -2.519531 3.171875 -2.46875 C 3.171875 -2.414062 3.148438 -2.367188 3.109375 -2.328125 C 3.078125 -2.296875 3.035156 -2.28125 2.984375 -2.28125 L 0.765625 -2.28125 L 0.46875 -0.328125 L 2.75 -0.328125 C 2.800781 -0.328125 2.84375 -0.304688 2.875 -0.265625 C 2.914062 -0.234375 2.9375 -0.191406 2.9375 -0.140625 C 2.9375 -0.0859375 2.914062 -0.0390625 2.875 0 C 2.84375 0.03125 2.800781 0.046875 2.75 0.046875 L 0.234375 0.046875 C 0.179688 0.046875 0.132812 0.0234375 0.09375 -0.015625 C 0.0625 -0.0664062 0.0507812 -0.117188 0.0625 -0.171875 L 0.828125 -5.046875 C 0.847656 -5.148438 0.910156 -5.203125 1.015625 -5.203125 Z M 3.53125 -5.203125 "/></g></g></g><g fill="#141414" fill-opacity="1"><g transform="translate(137.412087, 246.714707)"><g><path d="M 2.203125 -5.140625 L 2.640625 -0.21875 C 2.648438 -0.164062 2.640625 -0.117188 2.609375 -0.078125 C 2.578125 -0.0351562 2.535156 -0.0078125 2.484375 0 C 2.421875 0 2.367188 -0.015625 2.328125 -0.046875 C 2.296875 -0.0859375 2.28125 -0.132812 2.28125 -0.1875 L 2.09375 -2.265625 L 1 -2.25 L 0.078125 -0.109375 C 0.046875 -0.0351562 -0.0078125 0 -0.09375 0 C -0.125 0 -0.148438 -0.00390625 -0.171875 -0.015625 C -0.210938 -0.0351562 -0.242188 -0.0664062 -0.265625 -0.109375 C -0.285156 -0.160156 -0.285156 -0.207031 -0.265625 -0.25 L 1.859375 -5.203125 C 1.890625 -5.285156 1.953125 -5.320312 2.046875 -5.3125 C 2.140625 -5.289062 2.191406 -5.234375 2.203125 -5.140625 Z M 1.15625 -2.625 L 2.0625 -2.625 L 1.90625 -4.359375 Z M 1.15625 -2.625 "/></g></g></g><g fill="#141414" fill-opacity="1"><g transform="translate(146.371587, 246.714707)"><g><path d="M 3.125 -5.21875 C 3.175781 -5.21875 3.21875 -5.203125 3.25 -5.171875 C 3.289062 -5.140625 3.3125 -5.097656 3.3125 -5.046875 C 3.3125 -4.984375 3.289062 -4.9375 3.25 -4.90625 C 3.21875 -4.875 3.175781 -4.859375 3.125 -4.859375 L 2 -4.859375 L 1.265625 -0.265625 C 1.242188 -0.160156 1.179688 -0.109375 1.078125 -0.109375 C 1.066406 -0.109375 1.054688 -0.109375 1.046875 -0.109375 C 0.992188 -0.117188 0.953125 -0.144531 0.921875 -0.1875 C 0.898438 -0.226562 0.894531 -0.273438 0.90625 -0.328125 L 1.625 -4.859375 L 0.5625 -4.859375 C 0.507812 -4.859375 0.460938 -4.875 0.421875 -4.90625 C 0.390625 -4.9375 0.375 -4.984375 0.375 -5.046875 C 0.375 -5.097656 0.390625 -5.140625 0.421875 -5.171875 C 0.460938 -5.203125 0.507812 -5.21875 0.5625 -5.21875 Z M 3.125 -5.21875 "/></g></g></g><g fill="#141414" fill-opacity="1"><g transform="translate(155.08894, 246.714707)"><g><path d="M 3.53125 -5.203125 C 3.570312 -5.203125 3.613281 -5.179688 3.65625 -5.140625 C 3.695312 -5.109375 3.71875 -5.066406 3.71875 -5.015625 C 3.71875 -4.960938 3.695312 -4.914062 3.65625 -4.875 C 3.613281 -4.84375 3.570312 -4.828125 3.53125 -4.828125 L 1.1875 -4.828125 L 0.828125 -2.65625 L 2.984375 -2.65625 C 3.035156 -2.65625 3.078125 -2.632812 3.109375 -2.59375 C 3.148438 -2.5625 3.171875 -2.519531 3.171875 -2.46875 C 3.171875 -2.414062 3.148438 -2.367188 3.109375 -2.328125 C 3.078125 -2.296875 3.035156 -2.28125 2.984375 -2.28125 L 0.765625 -2.28125 L 0.46875 -0.328125 L 2.75 -0.328125 C 2.800781 -0.328125 2.84375 -0.304688 2.875 -0.265625 C 2.914062 -0.234375 2.9375 -0.191406 2.9375 -0.140625 C 2.9375 -0.0859375 2.914062 -0.0390625 2.875 0 C 2.84375 0.03125 2.800781 0.046875 2.75 0.046875 L 0.234375 0.046875 C 0.179688 0.046875 0.132812 0.0234375 0.09375 -0.015625 C 0.0625 -0.0664062 0.0507812 -0.117188 0.0625 -0.171875 L 0.828125 -5.046875 C 0.847656 -5.148438 0.910156 -5.203125 1.015625 -5.203125 Z M 3.53125 -5.203125 "/></g></g></g><g fill="#141414" fill-opacity="1"><g transform="translate(164.405066, 246.714707)"><g/></g></g><g fill="#141414" fill-opacity="1"><g transform="translate(103.611872, 254.281834)"><g><path d="M 4.765625 -5.28125 C 4.867188 -5.25 4.914062 -5.179688 4.90625 -5.078125 L 4.140625 -0.15625 C 4.128906 -0.101562 4.101562 -0.0625 4.0625 -0.03125 C 4.019531 -0.0078125 3.972656 0 3.921875 0 C 3.867188 -0.0078125 3.828125 -0.0351562 3.796875 -0.078125 C 3.765625 -0.117188 3.753906 -0.164062 3.765625 -0.21875 L 4.34375 -3.984375 L 2.359375 -0.171875 C 2.316406 -0.0859375 2.25 -0.0507812 2.15625 -0.0625 C 2.070312 -0.0703125 2.019531 -0.125 2 -0.21875 L 1.109375 -4.140625 L 0.40625 -0.140625 C 0.394531 -0.0351562 0.335938 0.015625 0.234375 0.015625 C 0.210938 0.015625 0.195312 0.0078125 0.1875 0 C 0.132812 0 0.09375 -0.0195312 0.0625 -0.0625 C 0.03125 -0.113281 0.0195312 -0.164062 0.03125 -0.21875 L 0.890625 -5.140625 C 0.910156 -5.234375 0.972656 -5.285156 1.078125 -5.296875 C 1.117188 -5.296875 1.15625 -5.28125 1.1875 -5.25 C 1.226562 -5.21875 1.253906 -5.179688 1.265625 -5.140625 L 2.265625 -0.796875 L 4.53125 -5.1875 C 4.582031 -5.28125 4.660156 -5.3125 4.765625 -5.28125 Z M 4.765625 -5.28125 "/></g></g></g><g fill="#141414" fill-opacity="1"><g transform="translate(114.410194, 254.281834)"><g><path d="M 3.53125 -5.203125 C 3.570312 -5.203125 3.613281 -5.179688 3.65625 -5.140625 C 3.695312 -5.109375 3.71875 -5.066406 3.71875 -5.015625 C 3.71875 -4.960938 3.695312 -4.914062 3.65625 -4.875 C 3.613281 -4.84375 3.570312 -4.828125 3.53125 -4.828125 L 1.1875 -4.828125 L 0.828125 -2.65625 L 2.984375 -2.65625 C 3.035156 -2.65625 3.078125 -2.632812 3.109375 -2.59375 C 3.148438 -2.5625 3.171875 -2.519531 3.171875 -2.46875 C 3.171875 -2.414062 3.148438 -2.367188 3.109375 -2.328125 C 3.078125 -2.296875 3.035156 -2.28125 2.984375 -2.28125 L 0.765625 -2.28125 L 0.46875 -0.328125 L 2.75 -0.328125 C 2.800781 -0.328125 2.84375 -0.304688 2.875 -0.265625 C 2.914062 -0.234375 2.9375 -0.191406 2.9375 -0.140625 C 2.9375 -0.0859375 2.914062 -0.0390625 2.875 0 C 2.84375 0.03125 2.800781 0.046875 2.75 0.046875 L 0.234375 0.046875 C 0.179688 0.046875 0.132812 0.0234375 0.09375 -0.015625 C 0.0625 -0.0664062 0.0507812 -0.117188 0.0625 -0.171875 L 0.828125 -5.046875 C 0.847656 -5.148438 0.910156 -5.203125 1.015625 -5.203125 Z M 3.53125 -5.203125 "/></g></g></g><g fill="#141414" fill-opacity="1"><g transform="translate(123.717783, 254.281834)"><g><path d="M 4.765625 -5.28125 C 4.867188 -5.25 4.914062 -5.179688 4.90625 -5.078125 L 4.140625 -0.15625 C 4.128906 -0.101562 4.101562 -0.0625 4.0625 -0.03125 C 4.019531 -0.0078125 3.972656 0 3.921875 0 C 3.867188 -0.0078125 3.828125 -0.0351562 3.796875 -0.078125 C 3.765625 -0.117188 3.753906 -0.164062 3.765625 -0.21875 L 4.34375 -3.984375 L 2.359375 -0.171875 C 2.316406 -0.0859375 2.25 -0.0507812 2.15625 -0.0625 C 2.070312 -0.0703125 2.019531 -0.125 2 -0.21875 L 1.109375 -4.140625 L 0.40625 -0.140625 C 0.394531 -0.0351562 0.335938 0.015625 0.234375 0.015625 C 0.210938 0.015625 0.195312 0.0078125 0.1875 0 C 0.132812 0 0.09375 -0.0195312 0.0625 -0.0625 C 0.03125 -0.113281 0.0195312 -0.164062 0.03125 -0.21875 L 0.890625 -5.140625 C 0.910156 -5.234375 0.972656 -5.285156 1.078125 -5.296875 C 1.117188 -5.296875 1.15625 -5.28125 1.1875 -5.25 C 1.226562 -5.21875 1.253906 -5.179688 1.265625 -5.140625 L 2.265625 -0.796875 L 4.53125 -5.1875 C 4.582031 -5.28125 4.660156 -5.3125 4.765625 -5.28125 Z M 4.765625 -5.28125 "/></g></g></g><g fill="#141414" fill-opacity="1"><g transform="translate(134.516105, 254.281834)"><g><path d="M 3.15625 -4.828125 C 3.238281 -4.660156 3.289062 -4.472656 3.3125 -4.265625 C 3.332031 -4.054688 3.332031 -3.84375 3.3125 -3.625 C 3.300781 -3.414062 3.273438 -3.21875 3.234375 -3.03125 C 3.203125 -2.84375 3.164062 -2.679688 3.125 -2.546875 C 3.09375 -2.421875 3.070312 -2.34375 3.0625 -2.3125 L 3.046875 -2.28125 C 2.546875 -0.75 1.9375 0.015625 1.21875 0.015625 C 1.175781 0.015625 1.132812 0.0078125 1.09375 0 C 0.851562 -0.0195312 0.660156 -0.140625 0.515625 -0.359375 C 0.378906 -0.554688 0.285156 -0.800781 0.234375 -1.09375 C 0.191406 -1.382812 0.179688 -1.679688 0.203125 -1.984375 C 0.222656 -2.296875 0.269531 -2.582031 0.34375 -2.84375 C 0.6875 -4.101562 1.144531 -4.890625 1.71875 -5.203125 C 1.882812 -5.304688 2.039062 -5.359375 2.1875 -5.359375 C 2.332031 -5.359375 2.457031 -5.347656 2.5625 -5.328125 C 2.820312 -5.242188 3.019531 -5.078125 3.15625 -4.828125 Z M 2.6875 -2.421875 C 2.738281 -2.566406 2.785156 -2.734375 2.828125 -2.921875 C 2.867188 -3.117188 2.898438 -3.320312 2.921875 -3.53125 C 2.953125 -3.75 2.957031 -3.953125 2.9375 -4.140625 C 2.925781 -4.335938 2.882812 -4.503906 2.8125 -4.640625 C 2.726562 -4.796875 2.601562 -4.898438 2.4375 -4.953125 C 2.382812 -4.960938 2.328125 -4.96875 2.265625 -4.96875 C 2.140625 -4.96875 2.019531 -4.9375 1.90625 -4.875 C 1.789062 -4.8125 1.664062 -4.703125 1.53125 -4.546875 C 1.40625 -4.398438 1.269531 -4.179688 1.125 -3.890625 C 0.988281 -3.597656 0.847656 -3.210938 0.703125 -2.734375 C 0.640625 -2.484375 0.597656 -2.21875 0.578125 -1.9375 C 0.566406 -1.65625 0.582031 -1.394531 0.625 -1.15625 C 0.675781 -0.914062 0.75 -0.722656 0.84375 -0.578125 C 0.925781 -0.453125 1.023438 -0.382812 1.140625 -0.375 C 1.234375 -0.363281 1.335938 -0.378906 1.453125 -0.421875 C 1.578125 -0.472656 1.707031 -0.566406 1.84375 -0.703125 C 1.976562 -0.847656 2.113281 -1.054688 2.25 -1.328125 C 2.394531 -1.609375 2.539062 -1.96875 2.6875 -2.40625 Z M 2.6875 -2.421875 "/></g></g></g><g fill="#141414" fill-opacity="1"><g transform="translate(143.800995, 254.281834)"><g><path d="M 3.40625 -3.984375 C 3.5 -3.117188 2.695312 -2.566406 1 -2.328125 L 2.75 -0.328125 C 2.789062 -0.285156 2.804688 -0.238281 2.796875 -0.1875 C 2.796875 -0.132812 2.773438 -0.0859375 2.734375 -0.046875 C 2.691406 -0.015625 2.644531 0 2.59375 0 C 2.539062 -0.0078125 2.5 -0.0351562 2.46875 -0.078125 L 0.734375 -2.03125 L 0.4375 -0.171875 C 0.414062 -0.0546875 0.351562 0 0.25 0 C 0.238281 0 0.226562 0 0.21875 0 C 0.164062 -0.0078125 0.125 -0.0351562 0.09375 -0.078125 C 0.0625 -0.128906 0.0507812 -0.179688 0.0625 -0.234375 L 0.859375 -5.109375 C 0.878906 -5.203125 0.941406 -5.253906 1.046875 -5.265625 C 1.054688 -5.265625 1.117188 -5.257812 1.234375 -5.25 C 1.347656 -5.25 1.488281 -5.238281 1.65625 -5.21875 C 1.832031 -5.207031 2.015625 -5.175781 2.203125 -5.125 C 2.398438 -5.070312 2.582031 -5 2.75 -4.90625 C 2.925781 -4.8125 3.070312 -4.6875 3.1875 -4.53125 C 3.3125 -4.382812 3.382812 -4.203125 3.40625 -3.984375 Z M 0.84375 -2.6875 C 1.113281 -2.71875 1.382812 -2.765625 1.65625 -2.828125 C 1.925781 -2.890625 2.164062 -2.972656 2.375 -3.078125 C 2.59375 -3.179688 2.757812 -3.300781 2.875 -3.4375 C 3 -3.582031 3.050781 -3.753906 3.03125 -3.953125 C 3.007812 -4.109375 2.945312 -4.238281 2.84375 -4.34375 C 2.75 -4.457031 2.628906 -4.546875 2.484375 -4.609375 C 2.335938 -4.679688 2.179688 -4.734375 2.015625 -4.765625 C 1.859375 -4.804688 1.707031 -4.832031 1.5625 -4.84375 C 1.414062 -4.863281 1.296875 -4.878906 1.203125 -4.890625 Z M 0.84375 -2.6875 "/></g></g></g><g fill="#141414" fill-opacity="1"><g transform="translate(153.040481, 254.281834)"><g><path d="M 0.453125 -0.171875 C 0.441406 -0.0664062 0.378906 -0.015625 0.265625 -0.015625 C 0.253906 -0.015625 0.242188 -0.015625 0.234375 -0.015625 C 0.179688 -0.0234375 0.140625 -0.0507812 0.109375 -0.09375 C 0.078125 -0.132812 0.0664062 -0.179688 0.078125 -0.234375 L 0.859375 -5.125 C 0.867188 -5.175781 0.894531 -5.21875 0.9375 -5.25 C 0.976562 -5.28125 1.023438 -5.289062 1.078125 -5.28125 C 1.128906 -5.28125 1.171875 -5.257812 1.203125 -5.21875 C 1.234375 -5.175781 1.242188 -5.125 1.234375 -5.0625 Z M 0.453125 -0.171875 "/></g></g></g><g fill="#141414" fill-opacity="1"><g transform="translate(160.15359, 254.281834)"><g><path d="M 3.53125 -5.203125 C 3.570312 -5.203125 3.613281 -5.179688 3.65625 -5.140625 C 3.695312 -5.109375 3.71875 -5.066406 3.71875 -5.015625 C 3.71875 -4.960938 3.695312 -4.914062 3.65625 -4.875 C 3.613281 -4.84375 3.570312 -4.828125 3.53125 -4.828125 L 1.1875 -4.828125 L 0.828125 -2.65625 L 2.984375 -2.65625 C 3.035156 -2.65625 3.078125 -2.632812 3.109375 -2.59375 C 3.148438 -2.5625 3.171875 -2.519531 3.171875 -2.46875 C 3.171875 -2.414062 3.148438 -2.367188 3.109375 -2.328125 C 3.078125 -2.296875 3.035156 -2.28125 2.984375 -2.28125 L 0.765625 -2.28125 L 0.46875 -0.328125 L 2.75 -0.328125 C 2.800781 -0.328125 2.84375 -0.304688 2.875 -0.265625 C 2.914062 -0.234375 2.9375 -0.191406 2.9375 -0.140625 C 2.9375 -0.0859375 2.914062 -0.0390625 2.875 0 C 2.84375 0.03125 2.800781 0.046875 2.75 0.046875 L 0.234375 0.046875 C 0.179688 0.046875 0.132812 0.0234375 0.09375 -0.015625 C 0.0625 -0.0664062 0.0507812 -0.117188 0.0625 -0.171875 L 0.828125 -5.046875 C 0.847656 -5.148438 0.910156 -5.203125 1.015625 -5.203125 Z M 3.53125 -5.203125 "/></g></g></g><g fill="#141414" fill-opacity="1"><g transform="translate(169.461181, 254.281834)"><g><path d="M 1.09375 -5.0625 C 1.289062 -5.195312 1.488281 -5.269531 1.6875 -5.28125 C 1.882812 -5.300781 2.078125 -5.28125 2.265625 -5.21875 C 2.453125 -5.164062 2.617188 -5.09375 2.765625 -5 C 2.910156 -4.914062 3.023438 -4.832031 3.109375 -4.75 C 3.148438 -4.71875 3.171875 -4.671875 3.171875 -4.609375 C 3.171875 -4.554688 3.148438 -4.515625 3.109375 -4.484375 C 3.078125 -4.441406 3.035156 -4.421875 2.984375 -4.421875 C 2.929688 -4.421875 2.882812 -4.4375 2.84375 -4.46875 C 2.832031 -4.476562 2.796875 -4.503906 2.734375 -4.546875 C 2.679688 -4.597656 2.601562 -4.65625 2.5 -4.71875 C 2.394531 -4.78125 2.273438 -4.832031 2.140625 -4.875 C 2.015625 -4.914062 1.878906 -4.925781 1.734375 -4.90625 C 1.597656 -4.894531 1.457031 -4.84375 1.3125 -4.75 C 1.101562 -4.613281 0.984375 -4.4375 0.953125 -4.21875 C 0.941406 -4.03125 0.988281 -3.828125 1.09375 -3.609375 C 1.207031 -3.398438 1.375 -3.191406 1.59375 -2.984375 C 1.78125 -2.796875 1.957031 -2.601562 2.125 -2.40625 C 2.289062 -2.21875 2.429688 -2.03125 2.546875 -1.84375 C 2.660156 -1.65625 2.726562 -1.46875 2.75 -1.28125 C 2.769531 -1.09375 2.722656 -0.910156 2.609375 -0.734375 C 2.503906 -0.546875 2.359375 -0.394531 2.171875 -0.28125 C 1.992188 -0.164062 1.796875 -0.0976562 1.578125 -0.078125 C 1.535156 -0.078125 1.488281 -0.078125 1.4375 -0.078125 C 0.914062 -0.078125 0.425781 -0.328125 -0.03125 -0.828125 C -0.0703125 -0.867188 -0.0859375 -0.914062 -0.078125 -0.96875 C -0.078125 -1.019531 -0.0546875 -1.066406 -0.015625 -1.109375 C 0.015625 -1.140625 0.0546875 -1.15625 0.109375 -1.15625 C 0.171875 -1.15625 0.21875 -1.132812 0.25 -1.09375 C 0.445312 -0.863281 0.65625 -0.691406 0.875 -0.578125 C 1.101562 -0.472656 1.328125 -0.4375 1.546875 -0.46875 C 1.867188 -0.488281 2.117188 -0.644531 2.296875 -0.9375 C 2.421875 -1.144531 2.382812 -1.394531 2.1875 -1.6875 C 2 -1.976562 1.710938 -2.316406 1.328125 -2.703125 C 1.066406 -2.960938 0.867188 -3.222656 0.734375 -3.484375 C 0.609375 -3.753906 0.554688 -4.007812 0.578125 -4.25 C 0.617188 -4.582031 0.789062 -4.851562 1.09375 -5.0625 Z M 1.09375 -5.0625 "/></g></g></g><g fill="#141414" fill-opacity="1"><g transform="translate(109.106011, 225.517118)"><g><path d="M 13.171875 -3.09375 C 13.171875 -3.082031 13.078125 -2.960938 12.890625 -2.734375 C 12.710938 -2.515625 12.453125 -2.238281 12.109375 -1.90625 C 11.773438 -1.570312 11.367188 -1.242188 10.890625 -0.921875 C 10.410156 -0.597656 9.863281 -0.328125 9.25 -0.109375 C 8.644531 0.109375 7.984375 0.21875 7.265625 0.21875 C 6.472656 0.21875 5.710938 0.0820312 4.984375 -0.1875 C 3.160156 -0.863281 1.878906 -1.898438 1.140625 -3.296875 C 0.398438 -4.691406 0.25 -6.351562 0.6875 -8.28125 C 0.882812 -9.15625 1.191406 -10.035156 1.609375 -10.921875 C 2.035156 -11.816406 2.539062 -12.675781 3.125 -13.5 C 3.707031 -14.320312 4.332031 -15.082031 5 -15.78125 C 5.675781 -16.476562 6.363281 -17.082031 7.0625 -17.59375 C 7.769531 -18.113281 8.460938 -18.503906 9.140625 -18.765625 C 9.828125 -19.023438 10.46875 -19.128906 11.0625 -19.078125 C 12.050781 -19.054688 12.867188 -18.664062 13.515625 -17.90625 C 13.648438 -17.726562 13.820312 -17.601562 14.03125 -17.53125 C 14.238281 -17.457031 14.445312 -17.441406 14.65625 -17.484375 C 15.289062 -17.648438 15.941406 -17.738281 16.609375 -17.75 C 16.722656 -17.75 16.820312 -17.707031 16.90625 -17.625 C 17 -17.539062 17.046875 -17.441406 17.046875 -17.328125 C 17.046875 -17.210938 17 -17.113281 16.90625 -17.03125 C 16.820312 -16.945312 16.726562 -16.90625 16.625 -16.90625 C 15.84375 -16.894531 15.085938 -16.773438 14.359375 -16.546875 C 14.140625 -16.472656 14.035156 -16.320312 14.046875 -16.09375 C 14.015625 -15.5625 13.882812 -15.007812 13.65625 -14.4375 C 13.4375 -13.863281 13.148438 -13.3125 12.796875 -12.78125 C 12.453125 -12.25 12.066406 -11.769531 11.640625 -11.34375 C 11.222656 -10.914062 10.785156 -10.570312 10.328125 -10.3125 C 9.867188 -10.050781 9.429688 -9.914062 9.015625 -9.90625 C 8.515625 -9.851562 8.128906 -10.035156 7.859375 -10.453125 C 7.535156 -10.972656 7.644531 -11.71875 8.1875 -12.6875 C 9.226562 -14.382812 10.628906 -15.691406 12.390625 -16.609375 C 12.597656 -16.722656 12.71875 -16.90625 12.75 -17.15625 C 12.769531 -17.40625 12.6875 -17.609375 12.5 -17.765625 C 12.03125 -18.054688 11.519531 -18.210938 10.96875 -18.234375 C 10.488281 -18.273438 9.953125 -18.175781 9.359375 -17.9375 C 8.765625 -17.707031 8.144531 -17.359375 7.5 -16.890625 C 6.863281 -16.421875 6.234375 -15.863281 5.609375 -15.21875 C 4.984375 -14.570312 4.394531 -13.863281 3.84375 -13.09375 C 3.300781 -12.332031 2.828125 -11.523438 2.421875 -10.671875 C 2.015625 -9.828125 1.707031 -8.96875 1.5 -8.09375 C 1.375 -7.5 1.304688 -6.863281 1.296875 -6.1875 C 1.296875 -5.519531 1.410156 -4.859375 1.640625 -4.203125 C 1.878906 -3.554688 2.289062 -2.953125 2.875 -2.390625 C 3.457031 -1.828125 4.257812 -1.359375 5.28125 -0.984375 C 6 -0.722656 6.671875 -0.597656 7.296875 -0.609375 C 7.921875 -0.617188 8.5 -0.71875 9.03125 -0.90625 C 9.5625 -1.09375 10.035156 -1.328125 10.453125 -1.609375 C 10.867188 -1.890625 11.222656 -2.171875 11.515625 -2.453125 C 11.804688 -2.742188 12.035156 -2.988281 12.203125 -3.1875 C 12.367188 -3.394531 12.460938 -3.515625 12.484375 -3.546875 C 12.546875 -3.648438 12.628906 -3.710938 12.734375 -3.734375 C 12.847656 -3.753906 12.957031 -3.726562 13.0625 -3.65625 C 13.15625 -3.59375 13.210938 -3.503906 13.234375 -3.390625 C 13.253906 -3.285156 13.234375 -3.1875 13.171875 -3.09375 Z M 8.984375 -10.75 C 9.316406 -10.757812 9.679688 -10.890625 10.078125 -11.140625 C 10.484375 -11.398438 10.882812 -11.738281 11.28125 -12.15625 C 11.675781 -12.582031 12.03125 -13.054688 12.34375 -13.578125 C 12.65625 -14.097656 12.890625 -14.617188 13.046875 -15.140625 C 13.097656 -15.335938 13.039062 -15.492188 12.875 -15.609375 C 12.71875 -15.742188 12.550781 -15.753906 12.375 -15.640625 C 10.9375 -14.816406 9.785156 -13.695312 8.921875 -12.28125 C 8.722656 -11.925781 8.601562 -11.628906 8.5625 -11.390625 C 8.519531 -11.148438 8.523438 -10.976562 8.578125 -10.875 C 8.609375 -10.820312 8.664062 -10.785156 8.75 -10.765625 C 8.832031 -10.753906 8.910156 -10.75 8.984375 -10.75 Z M 8.984375 -10.75 "/></g></g></g><g fill="#141414" fill-opacity="1"><g transform="translate(123.278603, 225.517118)"><g><path d="M 13.890625 -4.5 C 13.972656 -4.425781 14.015625 -4.328125 14.015625 -4.203125 C 14.015625 -4.085938 13.976562 -3.988281 13.90625 -3.90625 C 13.5 -3.488281 13 -3.046875 12.40625 -2.578125 C 11.8125 -2.117188 11.164062 -1.679688 10.46875 -1.265625 C 9.769531 -0.859375 9.054688 -0.53125 8.328125 -0.28125 C 7.597656 -0.03125 6.898438 0.09375 6.234375 0.09375 L 6.203125 0.09375 C 5.273438 0.125 4.5 -0.191406 3.875 -0.859375 C 3.601562 -1.160156 3.441406 -1.507812 3.390625 -1.90625 C 3.367188 -2.050781 3.285156 -2.144531 3.140625 -2.1875 C 2.992188 -2.226562 2.867188 -2.195312 2.765625 -2.09375 C 2.441406 -1.75 2.101562 -1.445312 1.75 -1.1875 C 1.40625 -0.925781 1.0625 -0.75 0.71875 -0.65625 C 0.375 -0.5625 0.0625 -0.597656 -0.21875 -0.765625 C -0.5 -0.929688 -0.648438 -1.175781 -0.671875 -1.5 C -0.703125 -1.832031 -0.660156 -2.195312 -0.546875 -2.59375 C -0.429688 -2.988281 -0.285156 -3.367188 -0.109375 -3.734375 C 0.0664062 -4.097656 0.222656 -4.398438 0.359375 -4.640625 C 0.421875 -4.734375 0.503906 -4.789062 0.609375 -4.8125 C 0.710938 -4.84375 0.8125 -4.832031 0.90625 -4.78125 C 1.007812 -4.726562 1.078125 -4.648438 1.109375 -4.546875 C 1.140625 -4.441406 1.132812 -4.332031 1.09375 -4.21875 C 0.820312 -3.757812 0.609375 -3.332031 0.453125 -2.9375 C 0.296875 -2.539062 0.195312 -2.207031 0.15625 -1.9375 C 0.113281 -1.675781 0.128906 -1.523438 0.203125 -1.484375 C 0.347656 -1.398438 0.554688 -1.429688 0.828125 -1.578125 C 1.097656 -1.734375 1.398438 -1.96875 1.734375 -2.28125 C 2.078125 -2.59375 2.425781 -2.957031 2.78125 -3.375 C 3.132812 -3.800781 3.460938 -4.234375 3.765625 -4.671875 C 3.828125 -4.765625 3.90625 -4.820312 4 -4.84375 C 4.101562 -4.863281 4.203125 -4.851562 4.296875 -4.8125 C 4.398438 -4.757812 4.46875 -4.6875 4.5 -4.59375 C 4.539062 -4.5 4.546875 -4.398438 4.515625 -4.296875 C 4.460938 -4.160156 4.40625 -3.96875 4.34375 -3.71875 C 4.28125 -3.46875 4.234375 -3.195312 4.203125 -2.90625 C 4.171875 -2.613281 4.171875 -2.332031 4.203125 -2.0625 C 4.242188 -1.789062 4.335938 -1.578125 4.484375 -1.421875 C 4.960938 -0.941406 5.535156 -0.710938 6.203125 -0.734375 L 6.234375 -0.734375 C 6.835938 -0.734375 7.472656 -0.851562 8.140625 -1.09375 C 8.804688 -1.34375 9.460938 -1.660156 10.109375 -2.046875 C 10.765625 -2.429688 11.367188 -2.835938 11.921875 -3.265625 C 12.472656 -3.703125 12.925781 -4.109375 13.28125 -4.484375 C 13.363281 -4.566406 13.460938 -4.613281 13.578125 -4.625 C 13.703125 -4.625 13.804688 -4.582031 13.890625 -4.5 Z M 13.890625 -4.5 "/></g></g></g><g fill="#141414" fill-opacity="1"><g transform="translate(136.507423, 225.517118)"><g><path d="M 10.984375 -4.4375 C 11.066406 -4.351562 11.109375 -4.253906 11.109375 -4.140625 C 11.109375 -4.023438 11.066406 -3.925781 10.984375 -3.84375 C 10.554688 -3.40625 10.035156 -2.976562 9.421875 -2.5625 C 8.816406 -2.15625 8.160156 -1.785156 7.453125 -1.453125 C 6.753906 -1.128906 6.039062 -0.875 5.3125 -0.6875 C 4.582031 -0.5 3.882812 -0.40625 3.21875 -0.40625 C 2.9375 -0.40625 2.671875 -0.421875 2.421875 -0.453125 C 1.878906 -0.492188 1.382812 -0.65625 0.9375 -0.9375 C 0.488281 -1.21875 0.132812 -1.585938 -0.125 -2.046875 C -0.175781 -2.140625 -0.1875 -2.238281 -0.15625 -2.34375 C -0.132812 -2.457031 -0.078125 -2.546875 0.015625 -2.609375 C 0.109375 -2.671875 0.210938 -2.6875 0.328125 -2.65625 C 0.441406 -2.632812 0.53125 -2.578125 0.59375 -2.484375 C 0.820312 -2.171875 1.109375 -1.929688 1.453125 -1.765625 C 1.796875 -1.609375 2.15625 -1.53125 2.53125 -1.53125 C 2.90625 -1.539062 3.257812 -1.644531 3.59375 -1.84375 C 3.820312 -1.96875 3.957031 -2.15625 4 -2.40625 C 4.050781 -2.65625 3.988281 -2.878906 3.8125 -3.078125 C 3.625 -3.265625 3.421875 -3.425781 3.203125 -3.5625 C 2.753906 -3.832031 2.378906 -4.175781 2.078125 -4.59375 C 2.035156 -4.664062 1.972656 -4.707031 1.890625 -4.71875 C 1.804688 -4.726562 1.738281 -4.707031 1.6875 -4.65625 L 0.46875 -3.5 C 0.34375 -3.394531 0.203125 -3.363281 0.046875 -3.40625 C -0.109375 -3.445312 -0.203125 -3.550781 -0.234375 -3.71875 C -0.273438 -3.875 -0.234375 -4.007812 -0.109375 -4.125 L 2.34375 -6.4375 C 2.613281 -6.757812 2.925781 -7.050781 3.28125 -7.3125 C 3.363281 -7.375 3.460938 -7.398438 3.578125 -7.390625 C 3.691406 -7.378906 3.785156 -7.332031 3.859375 -7.25 C 3.929688 -7.164062 3.960938 -7.066406 3.953125 -6.953125 C 3.941406 -6.835938 3.898438 -6.742188 3.828125 -6.671875 L 2.9375 -5.859375 C 2.800781 -5.691406 2.726562 -5.503906 2.71875 -5.296875 C 2.71875 -5.109375 2.820312 -4.925781 3.03125 -4.75 C 3.238281 -4.582031 3.457031 -4.414062 3.6875 -4.25 C 4.007812 -4.0625 4.289062 -3.816406 4.53125 -3.515625 C 4.707031 -3.265625 4.804688 -2.976562 4.828125 -2.65625 C 4.859375 -2.34375 4.800781 -2.050781 4.65625 -1.78125 C 4.613281 -1.6875 4.625 -1.601562 4.6875 -1.53125 C 4.738281 -1.457031 4.8125 -1.429688 4.90625 -1.453125 C 7 -1.953125 8.832031 -2.945312 10.40625 -4.4375 C 10.476562 -4.519531 10.570312 -4.5625 10.6875 -4.5625 C 10.800781 -4.5625 10.898438 -4.519531 10.984375 -4.4375 Z M 10.984375 -4.4375 "/></g></g></g><g fill="#141414" fill-opacity="1"><g transform="translate(146.840945, 225.517118)"><g><path d="M 10.984375 -4.359375 C 11.078125 -4.273438 11.125 -4.175781 11.125 -4.0625 C 11.125 -3.945312 11.078125 -3.847656 10.984375 -3.765625 C 10.953125 -3.734375 10.796875 -3.582031 10.515625 -3.3125 C 10.242188 -3.050781 9.878906 -2.738281 9.421875 -2.375 C 8.960938 -2.007812 8.441406 -1.644531 7.859375 -1.28125 C 7.273438 -0.925781 6.664062 -0.625 6.03125 -0.375 C 5.40625 -0.132812 4.769531 -0.015625 4.125 -0.015625 C 3.6875 -0.015625 3.253906 -0.09375 2.828125 -0.25 C 1.867188 -0.613281 1.160156 -1.421875 0.703125 -2.671875 C 0.242188 -3.921875 0.0703125 -5.5 0.1875 -7.40625 C 0.175781 -7.488281 0.140625 -7.554688 0.078125 -7.609375 C 0.015625 -7.671875 -0.0546875 -7.695312 -0.140625 -7.6875 C -0.953125 -7.613281 -1.6875 -7.550781 -2.34375 -7.5 C -3.007812 -7.457031 -3.539062 -7.421875 -3.9375 -7.390625 C -4.332031 -7.367188 -4.539062 -7.359375 -4.5625 -7.359375 L -4.59375 -7.359375 C -4.707031 -7.347656 -4.804688 -7.378906 -4.890625 -7.453125 C -4.984375 -7.535156 -5.03125 -7.640625 -5.03125 -7.765625 C -5.03125 -7.878906 -4.988281 -7.976562 -4.90625 -8.0625 C -4.832031 -8.144531 -4.738281 -8.1875 -4.625 -8.1875 C -4.601562 -8.1875 -4.382812 -8.203125 -3.96875 -8.234375 C -3.550781 -8.265625 -2.992188 -8.304688 -2.296875 -8.359375 C -1.609375 -8.421875 -0.84375 -8.476562 0 -8.53125 C 0.09375 -8.539062 0.164062 -8.585938 0.21875 -8.671875 C 0.28125 -8.753906 0.328125 -8.851562 0.359375 -8.96875 C 0.453125 -9.601562 0.570312 -10.25 0.71875 -10.90625 C 0.875 -11.5625 1.050781 -12.171875 1.25 -12.734375 C 1.457031 -13.296875 1.691406 -13.757812 1.953125 -14.125 C 2.210938 -14.5 2.484375 -14.71875 2.765625 -14.78125 C 2.878906 -14.800781 3.035156 -14.78125 3.234375 -14.71875 C 3.429688 -14.664062 3.613281 -14.472656 3.78125 -14.140625 C 3.894531 -13.921875 3.921875 -13.546875 3.859375 -13.015625 C 3.796875 -12.484375 3.664062 -11.867188 3.46875 -11.171875 C 3.28125 -10.484375 3.054688 -9.773438 2.796875 -9.046875 C 2.742188 -8.898438 2.738281 -8.804688 2.78125 -8.765625 C 2.832031 -8.734375 2.875 -8.71875 2.90625 -8.71875 C 3.945312 -8.78125 4.929688 -8.832031 5.859375 -8.875 C 6.796875 -8.914062 7.570312 -8.9375 8.1875 -8.9375 C 8.3125 -8.9375 8.410156 -8.894531 8.484375 -8.8125 C 8.566406 -8.726562 8.609375 -8.632812 8.609375 -8.53125 C 8.609375 -8.414062 8.566406 -8.3125 8.484375 -8.21875 C 8.410156 -8.132812 8.3125 -8.09375 8.1875 -8.09375 C 7.550781 -8.09375 6.734375 -8.070312 5.734375 -8.03125 C 4.734375 -8 3.695312 -7.941406 2.625 -7.859375 C 2.53125 -7.859375 2.460938 -7.847656 2.421875 -7.828125 C 2.390625 -7.804688 2.351562 -7.757812 2.3125 -7.6875 C 2.09375 -7.019531 1.875 -6.40625 1.65625 -5.84375 C 1.4375 -5.289062 1.257812 -4.84375 1.125 -4.5 C 1.1875 -4 1.296875 -3.515625 1.453125 -3.046875 C 1.609375 -2.585938 1.820312 -2.175781 2.09375 -1.8125 C 2.363281 -1.457031 2.710938 -1.203125 3.140625 -1.046875 C 3.617188 -0.859375 4.128906 -0.804688 4.671875 -0.890625 C 5.210938 -0.984375 5.753906 -1.15625 6.296875 -1.40625 C 6.835938 -1.65625 7.347656 -1.941406 7.828125 -2.265625 C 8.316406 -2.585938 8.753906 -2.910156 9.140625 -3.234375 C 9.523438 -3.554688 9.828125 -3.820312 10.046875 -4.03125 C 10.273438 -4.238281 10.394531 -4.347656 10.40625 -4.359375 C 10.476562 -4.441406 10.570312 -4.484375 10.6875 -4.484375 C 10.800781 -4.484375 10.898438 -4.441406 10.984375 -4.359375 Z M 1.203125 -8.984375 C 1.191406 -8.921875 1.1875 -8.84375 1.1875 -8.75 C 1.1875 -8.664062 1.226562 -8.625 1.3125 -8.625 C 1.394531 -8.625 1.476562 -8.628906 1.5625 -8.640625 C 1.726562 -8.648438 1.828125 -8.738281 1.859375 -8.90625 C 2.128906 -9.707031 2.363281 -10.453125 2.5625 -11.140625 C 2.757812 -11.828125 2.898438 -12.398438 2.984375 -12.859375 C 3.078125 -13.316406 3.09375 -13.617188 3.03125 -13.765625 C 3 -13.828125 2.953125 -13.867188 2.890625 -13.890625 C 2.828125 -13.898438 2.773438 -13.882812 2.734375 -13.84375 C 2.585938 -13.675781 2.414062 -13.363281 2.21875 -12.90625 C 2.03125 -12.445312 1.84375 -11.878906 1.65625 -11.203125 C 1.46875 -10.535156 1.316406 -9.796875 1.203125 -8.984375 Z M 0.984375 -6.5 C 1.035156 -6.5 1.09375 -6.554688 1.15625 -6.671875 C 1.226562 -6.785156 1.289062 -6.921875 1.34375 -7.078125 C 1.40625 -7.242188 1.445312 -7.394531 1.46875 -7.53125 C 1.5 -7.675781 1.5 -7.765625 1.46875 -7.796875 C 1.320312 -7.867188 1.1875 -7.859375 1.0625 -7.765625 C 1.007812 -7.722656 0.972656 -7.632812 0.953125 -7.5 C 0.929688 -7.363281 0.914062 -7.21875 0.90625 -7.0625 C 0.894531 -6.90625 0.894531 -6.769531 0.90625 -6.65625 C 0.925781 -6.550781 0.953125 -6.5 0.984375 -6.5 Z M 0.984375 -6.5 "/></g></g></g><g fill="#141414" fill-opacity="1"><g transform="translate(157.062487, 225.517118)"><g><path d="M 11.6875 -4.546875 C 11.769531 -4.460938 11.8125 -4.359375 11.8125 -4.234375 C 11.8125 -4.117188 11.769531 -4.023438 11.6875 -3.953125 C 11 -3.265625 10.269531 -2.722656 9.5 -2.328125 C 8.738281 -1.929688 7.972656 -1.644531 7.203125 -1.46875 C 6.429688 -1.300781 5.703125 -1.222656 5.015625 -1.234375 C 4.328125 -1.253906 3.726562 -1.335938 3.21875 -1.484375 C 3.144531 -1.503906 3.085938 -1.476562 3.046875 -1.40625 C 2.898438 -1.082031 2.6875 -0.828125 2.40625 -0.640625 C 2.125 -0.453125 1.804688 -0.351562 1.453125 -0.34375 C 1.097656 -0.34375 0.773438 -0.425781 0.484375 -0.59375 C 0.078125 -0.78125 -0.207031 -1.078125 -0.375 -1.484375 C -0.550781 -1.890625 -0.570312 -2.304688 -0.4375 -2.734375 C -0.332031 -3.109375 -0.164062 -3.460938 0.0625 -3.796875 C 0.300781 -4.128906 0.566406 -4.398438 0.859375 -4.609375 C 1.160156 -4.828125 1.445312 -4.9375 1.71875 -4.9375 L 1.734375 -4.9375 C 1.847656 -4.9375 1.941406 -4.894531 2.015625 -4.8125 C 2.097656 -4.726562 2.140625 -4.628906 2.140625 -4.515625 C 2.140625 -4.410156 2.097656 -4.316406 2.015625 -4.234375 C 1.929688 -4.148438 1.832031 -4.109375 1.71875 -4.109375 C 1.613281 -4.109375 1.46875 -4.03125 1.28125 -3.875 C 1.101562 -3.726562 0.925781 -3.535156 0.75 -3.296875 C 0.570312 -3.054688 0.445312 -2.800781 0.375 -2.53125 C 0.28125 -2.289062 0.28125 -2.054688 0.375 -1.828125 C 0.476562 -1.597656 0.640625 -1.4375 0.859375 -1.34375 C 1.054688 -1.195312 1.269531 -1.132812 1.5 -1.15625 C 1.738281 -1.1875 1.929688 -1.289062 2.078125 -1.46875 C 2.128906 -1.53125 2.1875 -1.613281 2.25 -1.71875 C 2.320312 -1.820312 2.304688 -1.90625 2.203125 -1.96875 C 1.910156 -2.15625 1.722656 -2.425781 1.640625 -2.78125 C 1.566406 -3.132812 1.628906 -3.460938 1.828125 -3.765625 C 2.078125 -4.203125 2.304688 -4.445312 2.515625 -4.5 C 2.734375 -4.550781 2.921875 -4.535156 3.078125 -4.453125 C 3.285156 -4.328125 3.414062 -4.09375 3.46875 -3.75 C 3.519531 -3.40625 3.515625 -3.035156 3.453125 -2.640625 C 3.429688 -2.546875 3.453125 -2.453125 3.515625 -2.359375 C 3.578125 -2.265625 3.660156 -2.207031 3.765625 -2.1875 C 4.660156 -2.039062 5.546875 -2.035156 6.421875 -2.171875 C 7.304688 -2.316406 8.144531 -2.585938 8.9375 -2.984375 C 9.726562 -3.378906 10.445312 -3.898438 11.09375 -4.546875 C 11.164062 -4.628906 11.257812 -4.671875 11.375 -4.671875 C 11.488281 -4.671875 11.59375 -4.628906 11.6875 -4.546875 Z M 2.625 -2.734375 C 2.664062 -2.992188 2.675781 -3.253906 2.65625 -3.515625 C 2.644531 -3.484375 2.628906 -3.453125 2.609375 -3.421875 C 2.585938 -3.398438 2.566406 -3.375 2.546875 -3.34375 C 2.484375 -3.25 2.457031 -3.140625 2.46875 -3.015625 C 2.476562 -2.898438 2.53125 -2.804688 2.625 -2.734375 Z M 2.625 -2.734375 "/></g></g></g><g fill="#141414" fill-opacity="1"><g transform="translate(168.115831, 225.517118)"><g><path d="M 17.546875 -4.0625 C 17.648438 -3.988281 17.707031 -3.894531 17.71875 -3.78125 C 17.726562 -3.664062 17.695312 -3.5625 17.625 -3.46875 C 17.59375 -3.4375 17.472656 -3.304688 17.265625 -3.078125 C 17.054688 -2.847656 16.773438 -2.570312 16.421875 -2.25 C 16.066406 -1.925781 15.65625 -1.601562 15.1875 -1.28125 C 14.71875 -0.96875 14.203125 -0.703125 13.640625 -0.484375 C 13.078125 -0.273438 12.492188 -0.171875 11.890625 -0.171875 C 11.085938 -0.171875 10.34375 -0.375 9.65625 -0.78125 C 9.0625 -1.164062 8.640625 -1.6875 8.390625 -2.34375 C 8.222656 -2.664062 8.09375 -2.875 8 -2.96875 C 7.914062 -3.070312 7.773438 -3.109375 7.578125 -3.078125 C 7.441406 -3.054688 7.234375 -2.929688 6.953125 -2.703125 C 6.671875 -2.472656 6.367188 -2.179688 6.046875 -1.828125 C 5.722656 -1.484375 5.457031 -1.125 5.25 -0.75 C 5.132812 -0.5625 4.972656 -0.5 4.765625 -0.5625 C 4.554688 -0.625 4.457031 -0.765625 4.46875 -0.984375 C 4.5 -1.679688 4.398438 -2.234375 4.171875 -2.640625 C 3.953125 -3.054688 3.734375 -3.28125 3.515625 -3.3125 C 3.398438 -3.332031 3.242188 -3.316406 3.046875 -3.265625 C 2.859375 -3.222656 2.617188 -3.101562 2.328125 -2.90625 C 2.046875 -2.71875 1.703125 -2.425781 1.296875 -2.03125 C 0.890625 -1.632812 0.421875 -1.101562 -0.109375 -0.4375 C -0.242188 -0.257812 -0.414062 -0.21875 -0.625 -0.3125 C -0.820312 -0.414062 -0.894531 -0.570312 -0.84375 -0.78125 L -0.078125 -4.15625 C -0.0546875 -4.28125 0 -4.375 0.09375 -4.4375 C 0.195312 -4.5 0.304688 -4.515625 0.421875 -4.484375 C 0.535156 -4.460938 0.625 -4.398438 0.6875 -4.296875 C 0.75 -4.191406 0.765625 -4.085938 0.734375 -3.984375 C 0.734375 -3.984375 0.71875 -3.914062 0.6875 -3.78125 C 0.65625 -3.644531 0.617188 -3.488281 0.578125 -3.3125 C 0.546875 -3.144531 0.515625 -2.988281 0.484375 -2.84375 C 0.453125 -2.707031 0.4375 -2.628906 0.4375 -2.609375 C 0.425781 -2.546875 0.441406 -2.507812 0.484375 -2.5 C 0.535156 -2.488281 0.582031 -2.503906 0.625 -2.546875 C 1.09375 -2.992188 1.5 -3.332031 1.84375 -3.5625 C 2.195312 -3.800781 2.5 -3.957031 2.75 -4.03125 C 3.007812 -4.101562 3.234375 -4.132812 3.421875 -4.125 C 3.609375 -4.113281 3.769531 -4.09375 3.90625 -4.0625 C 4.238281 -3.914062 4.519531 -3.695312 4.75 -3.40625 C 4.976562 -3.113281 5.117188 -2.789062 5.171875 -2.4375 C 5.179688 -2.382812 5.210938 -2.351562 5.265625 -2.34375 C 5.328125 -2.3125 5.375 -2.320312 5.40625 -2.375 C 5.75 -2.75 6.109375 -3.085938 6.484375 -3.390625 C 6.867188 -3.691406 7.191406 -3.863281 7.453125 -3.90625 C 7.796875 -3.957031 8.070312 -3.921875 8.28125 -3.796875 C 8.488281 -3.679688 8.65625 -3.523438 8.78125 -3.328125 C 8.914062 -3.128906 9.035156 -2.925781 9.140625 -2.71875 C 9.328125 -2.21875 9.640625 -1.816406 10.078125 -1.515625 C 10.628906 -1.203125 11.179688 -1.039062 11.734375 -1.03125 C 12.285156 -1.019531 12.816406 -1.109375 13.328125 -1.296875 C 13.835938 -1.484375 14.3125 -1.722656 14.75 -2.015625 C 15.1875 -2.316406 15.570312 -2.617188 15.90625 -2.921875 C 16.238281 -3.222656 16.492188 -3.476562 16.671875 -3.6875 C 16.859375 -3.894531 16.957031 -4 16.96875 -4 C 17.039062 -4.09375 17.132812 -4.144531 17.25 -4.15625 C 17.363281 -4.164062 17.460938 -4.132812 17.546875 -4.0625 Z M 17.546875 -4.0625 "/></g></g></g><g fill="#141414" fill-opacity="1"><g transform="translate(184.959782, 225.517118)"><g/></g></g><g fill="#141414" fill-opacity="1"><g transform="translate(190.910354, 225.517118)"><g><path d="M 4.625 -0.453125 C 4.082031 -0.109375 3.488281 0.0664062 2.84375 0.078125 C 2.15625 0.0664062 1.535156 -0.148438 0.984375 -0.578125 C 0.847656 -0.660156 0.785156 -0.785156 0.796875 -0.953125 C 0.816406 -1.128906 0.90625 -1.25 1.0625 -1.3125 C 1.21875 -1.375 1.359375 -1.351562 1.484375 -1.25 C 1.878906 -0.925781 2.328125 -0.757812 2.828125 -0.75 C 3.335938 -0.738281 3.796875 -0.878906 4.203125 -1.171875 C 4.796875 -1.515625 5.367188 -2.015625 5.921875 -2.671875 C 6.484375 -3.328125 7.007812 -4.09375 7.5 -4.96875 C 7.988281 -5.84375 8.429688 -6.773438 8.828125 -7.765625 C 9.222656 -8.753906 9.550781 -9.742188 9.8125 -10.734375 C 10.082031 -11.734375 10.269531 -12.6875 10.375 -13.59375 C 10.488281 -14.507812 10.507812 -15.320312 10.4375 -16.03125 C 10.269531 -17.3125 9.828125 -18.054688 9.109375 -18.265625 C 8.671875 -18.398438 8.15625 -18.425781 7.5625 -18.34375 C 6.976562 -18.257812 6.367188 -18.101562 5.734375 -17.875 C 5.097656 -17.644531 4.503906 -17.367188 3.953125 -17.046875 C 3.398438 -16.734375 2.941406 -16.398438 2.578125 -16.046875 C 2.128906 -15.597656 1.941406 -15.242188 2.015625 -14.984375 C 2.078125 -14.753906 2.398438 -14.566406 2.984375 -14.421875 C 3.109375 -14.390625 3.195312 -14.320312 3.25 -14.21875 C 3.3125 -14.125 3.328125 -14.019531 3.296875 -13.90625 C 3.273438 -13.800781 3.210938 -13.710938 3.109375 -13.640625 C 3.003906 -13.578125 2.894531 -13.5625 2.78125 -13.59375 C 1.875 -13.820312 1.347656 -14.21875 1.203125 -14.78125 C 1.148438 -14.976562 1.160156 -15.234375 1.234375 -15.546875 C 1.316406 -15.859375 1.570312 -16.222656 2 -16.640625 C 2.40625 -17.046875 2.914062 -17.425781 3.53125 -17.78125 C 4.15625 -18.132812 4.816406 -18.4375 5.515625 -18.6875 C 6.210938 -18.945312 6.894531 -19.113281 7.5625 -19.1875 C 8.226562 -19.269531 8.820312 -19.234375 9.34375 -19.078125 C 9.59375 -19.003906 9.847656 -18.867188 10.109375 -18.671875 C 10.378906 -18.472656 10.617188 -18.171875 10.828125 -17.765625 C 11.035156 -17.359375 11.179688 -16.8125 11.265625 -16.125 C 11.347656 -15.363281 11.332031 -14.5 11.21875 -13.53125 C 11.113281 -12.570312 10.914062 -11.566406 10.625 -10.515625 C 10.34375 -9.472656 9.992188 -8.4375 9.578125 -7.40625 C 9.160156 -6.375 8.691406 -5.398438 8.171875 -4.484375 C 7.648438 -3.566406 7.085938 -2.753906 6.484375 -2.046875 C 5.878906 -1.335938 5.257812 -0.804688 4.625 -0.453125 Z M 4.625 -0.453125 "/></g></g></g><g fill="#141414" fill-opacity="1"><g transform="translate(200.731994, 225.517118)"><g><path d="M 13.984375 -3.984375 C 14.066406 -3.910156 14.109375 -3.8125 14.109375 -3.6875 C 14.117188 -3.570312 14.082031 -3.472656 14 -3.390625 C 13.976562 -3.359375 13.859375 -3.238281 13.640625 -3.03125 C 13.429688 -2.820312 13.144531 -2.570312 12.78125 -2.28125 C 12.414062 -1.988281 11.992188 -1.691406 11.515625 -1.390625 C 11.035156 -1.097656 10.519531 -0.851562 9.96875 -0.65625 C 9.414062 -0.457031 8.84375 -0.335938 8.25 -0.296875 C 7.65625 -0.265625 7.0625 -0.375 6.46875 -0.625 C 5.632812 -1.039062 4.988281 -1.65625 4.53125 -2.46875 C 4.46875 -2.550781 4.375 -2.679688 4.25 -2.859375 C 4.132812 -3.046875 3.976562 -3.132812 3.78125 -3.125 C 3.675781 -3.125 3.53125 -3.09375 3.34375 -3.03125 C 3.164062 -2.96875 2.925781 -2.847656 2.625 -2.671875 C 2.332031 -2.503906 1.984375 -2.234375 1.578125 -1.859375 C 1.171875 -1.484375 0.695312 -0.984375 0.15625 -0.359375 C 0.0195312 -0.191406 -0.148438 -0.15625 -0.359375 -0.25 C -0.546875 -0.351562 -0.613281 -0.507812 -0.5625 -0.71875 L 0.234375 -4.234375 C 0.253906 -4.347656 0.316406 -4.4375 0.421875 -4.5 C 0.523438 -4.5625 0.628906 -4.578125 0.734375 -4.546875 C 0.847656 -4.523438 0.9375 -4.460938 1 -4.359375 C 1.0625 -4.253906 1.082031 -4.148438 1.0625 -4.046875 L 0.6875 -2.46875 C 0.675781 -2.414062 0.695312 -2.375 0.75 -2.34375 C 0.800781 -2.3125 0.847656 -2.320312 0.890625 -2.375 C 2.078125 -3.488281 3.078125 -4.019531 3.890625 -3.96875 C 4.234375 -3.945312 4.519531 -3.804688 4.75 -3.546875 C 4.9375 -3.359375 5.097656 -3.148438 5.234375 -2.921875 C 5.597656 -2.265625 6.109375 -1.757812 6.765625 -1.40625 C 7.273438 -1.195312 7.789062 -1.113281 8.3125 -1.15625 C 8.84375 -1.195312 9.351562 -1.3125 9.84375 -1.5 C 10.332031 -1.695312 10.789062 -1.929688 11.21875 -2.203125 C 11.644531 -2.472656 12.019531 -2.738281 12.34375 -3 C 12.664062 -3.269531 12.914062 -3.492188 13.09375 -3.671875 C 13.28125 -3.859375 13.378906 -3.957031 13.390625 -3.96875 C 13.460938 -4.050781 13.5625 -4.09375 13.6875 -4.09375 C 13.800781 -4.09375 13.898438 -4.054688 13.984375 -3.984375 Z M 13.984375 -3.984375 "/></g></g></g><g fill="#141414" fill-opacity="1"><g transform="translate(214.056795, 225.517118)"><g><path d="M 14.171875 -4.0625 C 14.242188 -3.976562 14.28125 -3.878906 14.28125 -3.765625 C 14.28125 -3.640625 14.242188 -3.535156 14.171875 -3.453125 C 13.804688 -3.085938 13.363281 -2.726562 12.84375 -2.375 C 12.320312 -2.03125 11.75 -1.71875 11.125 -1.4375 C 10.5 -1.15625 9.851562 -0.929688 9.1875 -0.765625 C 8.53125 -0.597656 7.882812 -0.523438 7.25 -0.546875 C 6.257812 -0.523438 5.378906 -0.820312 4.609375 -1.4375 C 4.546875 -1.507812 4.460938 -1.539062 4.359375 -1.53125 C 4.253906 -1.53125 4.171875 -1.492188 4.109375 -1.421875 C 3.765625 -0.984375 3.363281 -0.609375 2.90625 -0.296875 C 2.625 -0.109375 2.304688 -0.0078125 1.953125 0 C 1.679688 0 1.429688 -0.0703125 1.203125 -0.21875 C 1.191406 -0.226562 1.175781 -0.242188 1.15625 -0.265625 C 0.882812 -0.515625 0.671875 -0.804688 0.515625 -1.140625 C 0.367188 -1.484375 0.257812 -1.835938 0.1875 -2.203125 C 0.125 -2.578125 0.0859375 -2.925781 0.078125 -3.25 C 0.0664062 -3.570312 0.0664062 -3.835938 0.078125 -4.046875 C 0.0859375 -4.265625 0.09375 -4.382812 0.09375 -4.40625 C 0.101562 -4.519531 0.15625 -4.609375 0.25 -4.671875 C 0.34375 -4.742188 0.441406 -4.773438 0.546875 -4.765625 C 0.660156 -4.753906 0.753906 -4.703125 0.828125 -4.609375 C 0.898438 -4.523438 0.929688 -4.425781 0.921875 -4.3125 C 0.898438 -4.144531 0.890625 -3.910156 0.890625 -3.609375 C 0.898438 -3.316406 0.925781 -3 0.96875 -2.65625 C 1.019531 -2.3125 1.097656 -1.984375 1.203125 -1.671875 C 1.316406 -1.367188 1.476562 -1.113281 1.6875 -0.90625 C 1.875 -0.8125 2.070312 -0.816406 2.28125 -0.921875 C 2.5 -1.035156 2.691406 -1.164062 2.859375 -1.3125 C 3.210938 -1.632812 3.519531 -2 3.78125 -2.40625 C 3.800781 -2.457031 3.800781 -2.507812 3.78125 -2.5625 C 3.582031 -2.957031 3.460938 -3.375 3.421875 -3.8125 C 3.378906 -4.25 3.453125 -4.597656 3.640625 -4.859375 C 3.785156 -5.066406 3.972656 -5.195312 4.203125 -5.25 C 4.441406 -5.300781 4.664062 -5.269531 4.875 -5.15625 C 5.207031 -5.007812 5.375 -4.765625 5.375 -4.421875 C 5.351562 -3.753906 5.171875 -3.132812 4.828125 -2.5625 C 4.816406 -2.507812 4.816406 -2.457031 4.828125 -2.40625 C 4.859375 -2.382812 4.882812 -2.351562 4.90625 -2.3125 C 5.5625 -1.65625 6.347656 -1.347656 7.265625 -1.390625 C 7.816406 -1.378906 8.390625 -1.445312 8.984375 -1.59375 C 9.585938 -1.738281 10.171875 -1.941406 10.734375 -2.203125 C 11.304688 -2.460938 11.835938 -2.75 12.328125 -3.0625 C 12.828125 -3.382812 13.238281 -3.71875 13.5625 -4.0625 C 13.65625 -4.144531 13.757812 -4.1875 13.875 -4.1875 C 13.988281 -4.1875 14.085938 -4.144531 14.171875 -4.0625 Z M 4.375 -3.578125 C 4.488281 -3.835938 4.539062 -4.109375 4.53125 -4.390625 C 4.507812 -4.429688 4.476562 -4.453125 4.4375 -4.453125 C 4.394531 -4.453125 4.363281 -4.4375 4.34375 -4.40625 C 4.226562 -4.132812 4.210938 -3.859375 4.296875 -3.578125 C 4.304688 -3.566406 4.320312 -3.5625 4.34375 -3.5625 C 4.363281 -3.5625 4.375 -3.566406 4.375 -3.578125 Z M 4.375 -3.578125 "/></g></g></g><g fill="#141414" fill-opacity="1"><g transform="translate(227.493565, 225.517118)"><g><path d="M 10.375 -4.3125 C 10.457031 -4.238281 10.5 -4.144531 10.5 -4.03125 C 10.5 -3.914062 10.460938 -3.816406 10.390625 -3.734375 C 10.335938 -3.703125 10.171875 -3.550781 9.890625 -3.28125 C 9.609375 -3.007812 9.234375 -2.691406 8.765625 -2.328125 C 8.304688 -1.960938 7.773438 -1.597656 7.171875 -1.234375 C 6.578125 -0.867188 5.941406 -0.566406 5.265625 -0.328125 C 4.585938 -0.0859375 3.910156 0.03125 3.234375 0.03125 C 2.253906 0.0390625 1.375 -0.242188 0.59375 -0.828125 C 0.269531 -1.066406 0.0507812 -1.34375 -0.0625 -1.65625 C -0.175781 -1.976562 -0.222656 -2.3125 -0.203125 -2.65625 C -0.191406 -3 -0.144531 -3.316406 -0.0625 -3.609375 C 0.0195312 -3.910156 0.0976562 -4.15625 0.171875 -4.34375 C 0.253906 -4.539062 0.300781 -4.648438 0.3125 -4.671875 C 0.382812 -4.765625 0.472656 -4.828125 0.578125 -4.859375 C 0.679688 -4.890625 0.78125 -4.878906 0.875 -4.828125 C 0.988281 -4.773438 1.0625 -4.695312 1.09375 -4.59375 C 1.132812 -4.488281 1.128906 -4.382812 1.078125 -4.28125 C 1.078125 -4.269531 1.039062 -4.195312 0.96875 -4.0625 C 0.90625 -3.925781 0.835938 -3.742188 0.765625 -3.515625 C 0.703125 -3.296875 0.65625 -3.0625 0.625 -2.8125 C 0.601562 -2.5625 0.625 -2.316406 0.6875 -2.078125 C 0.75 -1.847656 0.882812 -1.65625 1.09375 -1.5 C 1.582031 -1.132812 2.097656 -0.914062 2.640625 -0.84375 C 3.191406 -0.769531 3.742188 -0.800781 4.296875 -0.9375 C 4.859375 -1.070312 5.40625 -1.269531 5.9375 -1.53125 C 6.46875 -1.789062 6.960938 -2.078125 7.421875 -2.390625 C 7.878906 -2.703125 8.285156 -3.003906 8.640625 -3.296875 C 8.992188 -3.585938 9.269531 -3.828125 9.46875 -4.015625 C 9.664062 -4.203125 9.769531 -4.300781 9.78125 -4.3125 C 9.863281 -4.40625 9.957031 -4.453125 10.0625 -4.453125 C 10.175781 -4.453125 10.28125 -4.40625 10.375 -4.3125 Z M 0.140625 -5.578125 C -0.0664062 -5.578125 -0.195312 -5.6875 -0.25 -5.90625 C -0.3125 -6.113281 -0.242188 -6.273438 -0.046875 -6.390625 C 0.253906 -6.535156 0.519531 -6.726562 0.75 -6.96875 C 0.832031 -7.0625 0.929688 -7.109375 1.046875 -7.109375 C 1.160156 -7.109375 1.257812 -7.066406 1.34375 -6.984375 C 1.425781 -6.898438 1.46875 -6.800781 1.46875 -6.6875 C 1.476562 -6.582031 1.441406 -6.488281 1.359375 -6.40625 C 1.054688 -6.09375 0.722656 -5.835938 0.359375 -5.640625 C 0.285156 -5.597656 0.210938 -5.578125 0.140625 -5.578125 Z M 0.140625 -5.578125 "/></g></g></g><g fill="#141414" fill-opacity="1"><g transform="translate(237.315205, 225.517118)"><g><path d="M 10.984375 -4.359375 C 11.078125 -4.273438 11.125 -4.175781 11.125 -4.0625 C 11.125 -3.945312 11.078125 -3.847656 10.984375 -3.765625 C 10.953125 -3.734375 10.796875 -3.582031 10.515625 -3.3125 C 10.242188 -3.050781 9.878906 -2.738281 9.421875 -2.375 C 8.960938 -2.007812 8.441406 -1.644531 7.859375 -1.28125 C 7.273438 -0.925781 6.664062 -0.625 6.03125 -0.375 C 5.40625 -0.132812 4.769531 -0.015625 4.125 -0.015625 C 3.6875 -0.015625 3.253906 -0.09375 2.828125 -0.25 C 1.867188 -0.613281 1.160156 -1.421875 0.703125 -2.671875 C 0.242188 -3.921875 0.0703125 -5.5 0.1875 -7.40625 C 0.175781 -7.488281 0.140625 -7.554688 0.078125 -7.609375 C 0.015625 -7.671875 -0.0546875 -7.695312 -0.140625 -7.6875 C -0.953125 -7.613281 -1.6875 -7.550781 -2.34375 -7.5 C -3.007812 -7.457031 -3.539062 -7.421875 -3.9375 -7.390625 C -4.332031 -7.367188 -4.539062 -7.359375 -4.5625 -7.359375 L -4.59375 -7.359375 C -4.707031 -7.347656 -4.804688 -7.378906 -4.890625 -7.453125 C -4.984375 -7.535156 -5.03125 -7.640625 -5.03125 -7.765625 C -5.03125 -7.878906 -4.988281 -7.976562 -4.90625 -8.0625 C -4.832031 -8.144531 -4.738281 -8.1875 -4.625 -8.1875 C -4.601562 -8.1875 -4.382812 -8.203125 -3.96875 -8.234375 C -3.550781 -8.265625 -2.992188 -8.304688 -2.296875 -8.359375 C -1.609375 -8.421875 -0.84375 -8.476562 0 -8.53125 C 0.09375 -8.539062 0.164062 -8.585938 0.21875 -8.671875 C 0.28125 -8.753906 0.328125 -8.851562 0.359375 -8.96875 C 0.453125 -9.601562 0.570312 -10.25 0.71875 -10.90625 C 0.875 -11.5625 1.050781 -12.171875 1.25 -12.734375 C 1.457031 -13.296875 1.691406 -13.757812 1.953125 -14.125 C 2.210938 -14.5 2.484375 -14.71875 2.765625 -14.78125 C 2.878906 -14.800781 3.035156 -14.78125 3.234375 -14.71875 C 3.429688 -14.664062 3.613281 -14.472656 3.78125 -14.140625 C 3.894531 -13.921875 3.921875 -13.546875 3.859375 -13.015625 C 3.796875 -12.484375 3.664062 -11.867188 3.46875 -11.171875 C 3.28125 -10.484375 3.054688 -9.773438 2.796875 -9.046875 C 2.742188 -8.898438 2.738281 -8.804688 2.78125 -8.765625 C 2.832031 -8.734375 2.875 -8.71875 2.90625 -8.71875 C 3.945312 -8.78125 4.929688 -8.832031 5.859375 -8.875 C 6.796875 -8.914062 7.570312 -8.9375 8.1875 -8.9375 C 8.3125 -8.9375 8.410156 -8.894531 8.484375 -8.8125 C 8.566406 -8.726562 8.609375 -8.632812 8.609375 -8.53125 C 8.609375 -8.414062 8.566406 -8.3125 8.484375 -8.21875 C 8.410156 -8.132812 8.3125 -8.09375 8.1875 -8.09375 C 7.550781 -8.09375 6.734375 -8.070312 5.734375 -8.03125 C 4.734375 -8 3.695312 -7.941406 2.625 -7.859375 C 2.53125 -7.859375 2.460938 -7.847656 2.421875 -7.828125 C 2.390625 -7.804688 2.351562 -7.757812 2.3125 -7.6875 C 2.09375 -7.019531 1.875 -6.40625 1.65625 -5.84375 C 1.4375 -5.289062 1.257812 -4.84375 1.125 -4.5 C 1.1875 -4 1.296875 -3.515625 1.453125 -3.046875 C 1.609375 -2.585938 1.820312 -2.175781 2.09375 -1.8125 C 2.363281 -1.457031 2.710938 -1.203125 3.140625 -1.046875 C 3.617188 -0.859375 4.128906 -0.804688 4.671875 -0.890625 C 5.210938 -0.984375 5.753906 -1.15625 6.296875 -1.40625 C 6.835938 -1.65625 7.347656 -1.941406 7.828125 -2.265625 C 8.316406 -2.585938 8.753906 -2.910156 9.140625 -3.234375 C 9.523438 -3.554688 9.828125 -3.820312 10.046875 -4.03125 C 10.273438 -4.238281 10.394531 -4.347656 10.40625 -4.359375 C 10.476562 -4.441406 10.570312 -4.484375 10.6875 -4.484375 C 10.800781 -4.484375 10.898438 -4.441406 10.984375 -4.359375 Z M 1.203125 -8.984375 C 1.191406 -8.921875 1.1875 -8.84375 1.1875 -8.75 C 1.1875 -8.664062 1.226562 -8.625 1.3125 -8.625 C 1.394531 -8.625 1.476562 -8.628906 1.5625 -8.640625 C 1.726562 -8.648438 1.828125 -8.738281 1.859375 -8.90625 C 2.128906 -9.707031 2.363281 -10.453125 2.5625 -11.140625 C 2.757812 -11.828125 2.898438 -12.398438 2.984375 -12.859375 C 3.078125 -13.316406 3.09375 -13.617188 3.03125 -13.765625 C 3 -13.828125 2.953125 -13.867188 2.890625 -13.890625 C 2.828125 -13.898438 2.773438 -13.882812 2.734375 -13.84375 C 2.585938 -13.675781 2.414062 -13.363281 2.21875 -12.90625 C 2.03125 -12.445312 1.84375 -11.878906 1.65625 -11.203125 C 1.46875 -10.535156 1.316406 -9.796875 1.203125 -8.984375 Z M 0.984375 -6.5 C 1.035156 -6.5 1.09375 -6.554688 1.15625 -6.671875 C 1.226562 -6.785156 1.289062 -6.921875 1.34375 -7.078125 C 1.40625 -7.242188 1.445312 -7.394531 1.46875 -7.53125 C 1.5 -7.675781 1.5 -7.765625 1.46875 -7.796875 C 1.320312 -7.867188 1.1875 -7.859375 1.0625 -7.765625 C 1.007812 -7.722656 0.972656 -7.632812 0.953125 -7.5 C 0.929688 -7.363281 0.914062 -7.21875 0.90625 -7.0625 C 0.894531 -6.90625 0.894531 -6.769531 0.90625 -6.65625 C 0.925781 -6.550781 0.953125 -6.5 0.984375 -6.5 Z M 0.984375 -6.5 "/></g></g></g><g fill="#141414" fill-opacity="1"><g transform="translate(247.536746, 225.517118)"><g><path d="M 13.421875 -4.109375 C 13.492188 -4.023438 13.523438 -3.925781 13.515625 -3.8125 C 13.503906 -3.6875 13.453125 -3.585938 13.359375 -3.515625 C 13.316406 -3.484375 13.125 -3.34375 12.78125 -3.09375 C 12.4375 -2.84375 11.976562 -2.546875 11.40625 -2.203125 C 10.832031 -1.859375 10.164062 -1.515625 9.40625 -1.171875 C 8.644531 -0.828125 7.832031 -0.539062 6.96875 -0.3125 C 6.113281 -0.09375 5.222656 0.015625 4.296875 0.015625 C 3.210938 0.0234375 2.171875 -0.171875 1.171875 -0.578125 C 0.617188 -0.796875 0.226562 -1.054688 0 -1.359375 C -0.226562 -1.660156 -0.359375 -1.953125 -0.390625 -2.234375 C -0.421875 -2.523438 -0.414062 -2.769531 -0.375 -2.96875 C -0.269531 -3.363281 -0.0820312 -3.742188 0.1875 -4.109375 C 0.46875 -4.484375 0.796875 -4.816406 1.171875 -5.109375 C 1.546875 -5.398438 1.925781 -5.625 2.3125 -5.78125 C 2.695312 -5.945312 3.050781 -6.019531 3.375 -6 C 3.664062 -6 3.914062 -5.894531 4.125 -5.6875 C 4.332031 -5.488281 4.445312 -5.238281 4.46875 -4.9375 C 4.476562 -4.769531 4.429688 -4.5625 4.328125 -4.3125 C 4.234375 -4.0625 3.988281 -3.804688 3.59375 -3.546875 C 2.6875 -2.984375 1.695312 -2.734375 0.625 -2.796875 C 0.570312 -2.804688 0.523438 -2.796875 0.484375 -2.765625 C 0.441406 -2.734375 0.425781 -2.691406 0.4375 -2.640625 C 0.425781 -2.546875 0.4375 -2.421875 0.46875 -2.265625 C 0.5 -2.117188 0.585938 -1.960938 0.734375 -1.796875 C 0.878906 -1.640625 1.128906 -1.492188 1.484375 -1.359375 C 2.210938 -1.046875 2.957031 -0.867188 3.71875 -0.828125 C 4.476562 -0.785156 5.226562 -0.832031 5.96875 -0.96875 C 6.707031 -1.113281 7.414062 -1.3125 8.09375 -1.5625 C 8.769531 -1.8125 9.390625 -2.082031 9.953125 -2.375 C 10.523438 -2.675781 11.023438 -2.957031 11.453125 -3.21875 C 11.878906 -3.488281 12.210938 -3.710938 12.453125 -3.890625 C 12.703125 -4.078125 12.828125 -4.171875 12.828125 -4.171875 C 12.921875 -4.242188 13.03125 -4.273438 13.15625 -4.265625 C 13.257812 -4.253906 13.347656 -4.203125 13.421875 -4.109375 Z M 0.984375 -3.78125 C 0.867188 -3.613281 0.882812 -3.519531 1.03125 -3.5 C 1.175781 -3.488281 1.378906 -3.523438 1.640625 -3.609375 C 1.910156 -3.691406 2.1875 -3.789062 2.46875 -3.90625 C 2.75 -4.03125 2.976562 -4.144531 3.15625 -4.25 C 3.476562 -4.476562 3.628906 -4.679688 3.609375 -4.859375 C 3.597656 -4.984375 3.566406 -5.0625 3.515625 -5.09375 C 3.472656 -5.132812 3.410156 -5.160156 3.328125 -5.171875 C 2.984375 -5.191406 2.585938 -5.070312 2.140625 -4.8125 C 1.691406 -4.550781 1.304688 -4.207031 0.984375 -3.78125 Z M 0.984375 -3.78125 "/></g></g></g><g fill="#141414" fill-opacity="1"><g transform="translate(260.349665, 225.517118)"><g><path d="M 10.984375 -4.4375 C 11.066406 -4.351562 11.109375 -4.253906 11.109375 -4.140625 C 11.109375 -4.023438 11.066406 -3.925781 10.984375 -3.84375 C 10.554688 -3.40625 10.035156 -2.976562 9.421875 -2.5625 C 8.816406 -2.15625 8.160156 -1.785156 7.453125 -1.453125 C 6.753906 -1.128906 6.039062 -0.875 5.3125 -0.6875 C 4.582031 -0.5 3.882812 -0.40625 3.21875 -0.40625 C 2.9375 -0.40625 2.671875 -0.421875 2.421875 -0.453125 C 1.878906 -0.492188 1.382812 -0.65625 0.9375 -0.9375 C 0.488281 -1.21875 0.132812 -1.585938 -0.125 -2.046875 C -0.175781 -2.140625 -0.1875 -2.238281 -0.15625 -2.34375 C -0.132812 -2.457031 -0.078125 -2.546875 0.015625 -2.609375 C 0.109375 -2.671875 0.210938 -2.6875 0.328125 -2.65625 C 0.441406 -2.632812 0.53125 -2.578125 0.59375 -2.484375 C 0.820312 -2.171875 1.109375 -1.929688 1.453125 -1.765625 C 1.796875 -1.609375 2.15625 -1.53125 2.53125 -1.53125 C 2.90625 -1.539062 3.257812 -1.644531 3.59375 -1.84375 C 3.820312 -1.96875 3.957031 -2.15625 4 -2.40625 C 4.050781 -2.65625 3.988281 -2.878906 3.8125 -3.078125 C 3.625 -3.265625 3.421875 -3.425781 3.203125 -3.5625 C 2.753906 -3.832031 2.378906 -4.175781 2.078125 -4.59375 C 2.035156 -4.664062 1.972656 -4.707031 1.890625 -4.71875 C 1.804688 -4.726562 1.738281 -4.707031 1.6875 -4.65625 L 0.46875 -3.5 C 0.34375 -3.394531 0.203125 -3.363281 0.046875 -3.40625 C -0.109375 -3.445312 -0.203125 -3.550781 -0.234375 -3.71875 C -0.273438 -3.875 -0.234375 -4.007812 -0.109375 -4.125 L 2.34375 -6.4375 C 2.613281 -6.757812 2.925781 -7.050781 3.28125 -7.3125 C 3.363281 -7.375 3.460938 -7.398438 3.578125 -7.390625 C 3.691406 -7.378906 3.785156 -7.332031 3.859375 -7.25 C 3.929688 -7.164062 3.960938 -7.066406 3.953125 -6.953125 C 3.941406 -6.835938 3.898438 -6.742188 3.828125 -6.671875 L 2.9375 -5.859375 C 2.800781 -5.691406 2.726562 -5.503906 2.71875 -5.296875 C 2.71875 -5.109375 2.820312 -4.925781 3.03125 -4.75 C 3.238281 -4.582031 3.457031 -4.414062 3.6875 -4.25 C 4.007812 -4.0625 4.289062 -3.816406 4.53125 -3.515625 C 4.707031 -3.265625 4.804688 -2.976562 4.828125 -2.65625 C 4.859375 -2.34375 4.800781 -2.050781 4.65625 -1.78125 C 4.613281 -1.6875 4.625 -1.601562 4.6875 -1.53125 C 4.738281 -1.457031 4.8125 -1.429688 4.90625 -1.453125 C 7 -1.953125 8.832031 -2.945312 10.40625 -4.4375 C 10.476562 -4.519531 10.570312 -4.5625 10.6875 -4.5625 C 10.800781 -4.5625 10.898438 -4.519531 10.984375 -4.4375 Z M 10.984375 -4.4375 "/></g></g></g></svg>