<svg xmlns="http://www.w3.org/2000/svg" xmlns:xlink="http://www.w3.org/1999/xlink" width="500" zoomAndPan="magnify" viewBox="0 0 375 374.999991" height="500" preserveAspectRatio="xMidYMid meet" version="1.0"><defs><g/></defs><g fill="#bc9c22" fill-opacity="1"><g transform="translate(50.968002, 202.499987)"><g><path d="M 14.84375 -28.875 C 16.601562 -28.875 18.046875 -28.613281 19.171875 -28.09375 C 20.304688 -27.570312 21.316406 -26.96875 22.203125 -26.28125 C 22.734375 -25.882812 23.140625 -25.835938 23.421875 -26.140625 C 23.703125 -26.441406 23.894531 -27.164062 24 -28.3125 L 24.921875 -28.3125 C 24.867188 -27.332031 24.828125 -26.132812 24.796875 -24.71875 C 24.773438 -23.300781 24.765625 -21.4375 24.765625 -19.125 L 23.84375 -19.125 C 23.65625 -20.269531 23.476562 -21.179688 23.3125 -21.859375 C 23.15625 -22.535156 22.960938 -23.113281 22.734375 -23.59375 C 22.515625 -24.070312 22.21875 -24.554688 21.84375 -25.046875 C 21.007812 -26.140625 19.96875 -26.929688 18.71875 -27.421875 C 17.46875 -27.910156 16.148438 -28.15625 14.765625 -28.15625 C 13.453125 -28.15625 12.269531 -27.828125 11.21875 -27.171875 C 10.164062 -26.523438 9.257812 -25.585938 8.5 -24.359375 C 7.738281 -23.128906 7.148438 -21.644531 6.734375 -19.90625 C 6.328125 -18.175781 6.125 -16.234375 6.125 -14.078125 C 6.125 -11.835938 6.347656 -9.859375 6.796875 -8.140625 C 7.253906 -6.421875 7.890625 -4.972656 8.703125 -3.796875 C 9.515625 -2.628906 10.472656 -1.742188 11.578125 -1.140625 C 12.679688 -0.535156 13.875 -0.234375 15.15625 -0.234375 C 16.351562 -0.234375 17.601562 -0.472656 18.90625 -0.953125 C 20.21875 -1.441406 21.25 -2.21875 22 -3.28125 C 22.582031 -4.050781 22.988281 -4.890625 23.21875 -5.796875 C 23.445312 -6.703125 23.65625 -7.96875 23.84375 -9.59375 L 24.765625 -9.59375 C 24.765625 -7.164062 24.773438 -5.210938 24.796875 -3.734375 C 24.828125 -2.253906 24.867188 -1.007812 24.921875 0 L 24 0 C 23.894531 -1.144531 23.710938 -1.863281 23.453125 -2.15625 C 23.203125 -2.445312 22.785156 -2.410156 22.203125 -2.046875 C 21.210938 -1.347656 20.164062 -0.738281 19.0625 -0.21875 C 17.957031 0.300781 16.535156 0.5625 14.796875 0.5625 C 12.265625 0.5625 10.046875 -0.0078125 8.140625 -1.15625 C 6.234375 -2.300781 4.753906 -3.953125 3.703125 -6.109375 C 2.648438 -8.273438 2.125 -10.878906 2.125 -13.921875 C 2.125 -16.910156 2.671875 -19.523438 3.765625 -21.765625 C 4.859375 -24.003906 6.359375 -25.75 8.265625 -27 C 10.171875 -28.25 12.363281 -28.875 14.84375 -28.875 Z M 14.84375 -28.875 "/></g></g></g><g fill="#bc9c22" fill-opacity="1"><g transform="translate(78.485272, 202.499987)"><g><path d="M 19.3125 -21.046875 L 19.3125 -4.3125 C 19.3125 -3.113281 19.53125 -2.226562 19.96875 -1.65625 C 20.414062 -1.082031 21.210938 -0.796875 22.359375 -0.796875 L 22.359375 0.046875 C 21.535156 -0.0351562 20.707031 -0.078125 19.875 -0.078125 C 19.101562 -0.078125 18.363281 -0.0390625 17.65625 0.03125 C 16.945312 0.113281 16.300781 0.265625 15.71875 0.484375 L 15.71875 -4.234375 C 15.050781 -2.503906 14.109375 -1.269531 12.890625 -0.53125 C 11.679688 0.195312 10.4375 0.5625 9.15625 0.5625 C 8.226562 0.5625 7.414062 0.425781 6.71875 0.15625 C 6.03125 -0.101562 5.457031 -0.472656 5 -0.953125 C 4.488281 -1.492188 4.140625 -2.1875 3.953125 -3.03125 C 3.773438 -3.882812 3.6875 -4.941406 3.6875 -6.203125 L 3.6875 -16.234375 C 3.6875 -17.441406 3.472656 -18.332031 3.046875 -18.90625 C 2.617188 -19.476562 1.816406 -19.765625 0.640625 -19.765625 L 0.640625 -20.59375 C 1.492188 -20.519531 2.320312 -20.484375 3.125 -20.484375 C 3.894531 -20.484375 4.632812 -20.53125 5.34375 -20.625 C 6.050781 -20.71875 6.695312 -20.859375 7.28125 -21.046875 L 7.28125 -5.3125 C 7.28125 -4.488281 7.332031 -3.726562 7.4375 -3.03125 C 7.539062 -2.34375 7.804688 -1.785156 8.234375 -1.359375 C 8.660156 -0.929688 9.351562 -0.71875 10.3125 -0.71875 C 11.351562 -0.71875 12.28125 -1.035156 13.09375 -1.671875 C 13.90625 -2.316406 14.546875 -3.1875 15.015625 -4.28125 C 15.484375 -5.375 15.71875 -6.597656 15.71875 -7.953125 L 15.71875 -16.234375 C 15.71875 -17.441406 15.503906 -18.332031 15.078125 -18.90625 C 14.648438 -19.476562 13.851562 -19.765625 12.6875 -19.765625 L 12.6875 -20.59375 C 13.53125 -20.519531 14.351562 -20.484375 15.15625 -20.484375 C 15.925781 -20.484375 16.664062 -20.53125 17.375 -20.625 C 18.082031 -20.71875 18.726562 -20.859375 19.3125 -21.046875 Z M 19.3125 -21.046875 "/></g></g></g><g fill="#bc9c22" fill-opacity="1"><g transform="translate(101.722969, 202.499987)"><g><path d="M 8.3125 -21.15625 C 9.382812 -21.15625 10.289062 -20.984375 11.03125 -20.640625 C 11.78125 -20.296875 12.332031 -19.976562 12.6875 -19.6875 C 13.5625 -18.957031 14.09375 -19.4375 14.28125 -21.125 L 15.203125 -21.125 C 15.148438 -20.375 15.109375 -19.484375 15.078125 -18.453125 C 15.054688 -17.429688 15.046875 -16.050781 15.046875 -14.3125 L 14.125 -14.3125 C 13.957031 -15.300781 13.679688 -16.257812 13.296875 -17.1875 C 12.910156 -18.125 12.34375 -18.894531 11.59375 -19.5 C 10.851562 -20.101562 9.882812 -20.40625 8.6875 -20.40625 C 7.75 -20.40625 6.96875 -20.144531 6.34375 -19.625 C 5.71875 -19.101562 5.40625 -18.332031 5.40625 -17.3125 C 5.40625 -16.519531 5.644531 -15.835938 6.125 -15.265625 C 6.601562 -14.691406 7.226562 -14.15625 8 -13.65625 C 8.769531 -13.164062 9.609375 -12.628906 10.515625 -12.046875 C 11.535156 -11.398438 12.457031 -10.742188 13.28125 -10.078125 C 14.101562 -9.410156 14.757812 -8.675781 15.25 -7.875 C 15.75 -7.082031 16 -6.140625 16 -5.046875 C 16 -3.816406 15.675781 -2.785156 15.03125 -1.953125 C 14.394531 -1.128906 13.5625 -0.503906 12.53125 -0.078125 C 11.507812 0.347656 10.382812 0.5625 9.15625 0.5625 C 8.570312 0.5625 8.019531 0.515625 7.5 0.421875 C 6.976562 0.328125 6.476562 0.1875 6 0 C 5.726562 -0.132812 5.453125 -0.296875 5.171875 -0.484375 C 4.898438 -0.671875 4.628906 -0.867188 4.359375 -1.078125 C 4.085938 -1.296875 3.84375 -1.289062 3.625 -1.0625 C 3.414062 -0.832031 3.257812 -0.382812 3.15625 0.28125 L 2.234375 0.28125 C 2.285156 -0.570312 2.328125 -1.613281 2.359375 -2.84375 C 2.390625 -4.070312 2.40625 -5.695312 2.40625 -7.71875 L 3.3125 -7.71875 C 3.5 -6.226562 3.765625 -4.921875 4.109375 -3.796875 C 4.460938 -2.679688 5.007812 -1.804688 5.75 -1.171875 C 6.5 -0.546875 7.539062 -0.234375 8.875 -0.234375 C 9.414062 -0.234375 9.957031 -0.351562 10.5 -0.59375 C 11.039062 -0.832031 11.5 -1.234375 11.875 -1.796875 C 12.25 -2.359375 12.4375 -3.109375 12.4375 -4.046875 C 12.4375 -5.210938 12.007812 -6.171875 11.15625 -6.921875 C 10.300781 -7.671875 9.222656 -8.457031 7.921875 -9.28125 C 6.960938 -9.894531 6.0625 -10.507812 5.21875 -11.125 C 4.375 -11.738281 3.691406 -12.429688 3.171875 -13.203125 C 2.660156 -13.972656 2.40625 -14.90625 2.40625 -16 C 2.40625 -17.195312 2.675781 -18.175781 3.21875 -18.9375 C 3.769531 -19.695312 4.5 -20.253906 5.40625 -20.609375 C 6.3125 -20.972656 7.28125 -21.15625 8.3125 -21.15625 Z M 8.3125 -21.15625 "/></g></g></g><g fill="#bc9c22" fill-opacity="1"><g transform="translate(119.601191, 202.499987)"><g><path d="M 7.59375 -27.234375 L 7.59375 -20.5625 L 13.515625 -20.5625 L 13.515625 -19.765625 L 7.59375 -19.765625 L 7.59375 -4.28125 C 7.59375 -3.03125 7.816406 -2.148438 8.265625 -1.640625 C 8.722656 -1.128906 9.351562 -0.875 10.15625 -0.875 C 10.957031 -0.875 11.648438 -1.203125 12.234375 -1.859375 C 12.828125 -2.515625 13.335938 -3.613281 13.765625 -5.15625 L 14.5625 -4.953125 C 14.289062 -3.410156 13.757812 -2.101562 12.96875 -1.03125 C 12.1875 0.03125 10.984375 0.5625 9.359375 0.5625 C 8.453125 0.5625 7.703125 0.445312 7.109375 0.21875 C 6.523438 -0.0078125 6.007812 -0.335938 5.5625 -0.765625 C 4.976562 -1.378906 4.570312 -2.109375 4.34375 -2.953125 C 4.113281 -3.804688 4 -4.941406 4 -6.359375 L 4 -19.765625 L 0.15625 -19.765625 L 0.15625 -20.5625 L 4 -20.5625 L 4 -26.6875 C 4.664062 -26.707031 5.304688 -26.753906 5.921875 -26.828125 C 6.535156 -26.910156 7.09375 -27.046875 7.59375 -27.234375 Z M 7.59375 -27.234375 "/></g></g></g><g fill="#bc9c22" fill-opacity="1"><g transform="translate(133.759786, 202.499987)"><g><path d="M 10.953125 -21.15625 C 12.660156 -21.15625 14.191406 -20.78125 15.546875 -20.03125 C 16.910156 -19.289062 18 -18.117188 18.8125 -16.515625 C 19.632812 -14.921875 20.046875 -12.84375 20.046875 -10.28125 C 20.046875 -7.71875 19.632812 -5.644531 18.8125 -4.0625 C 18 -2.476562 16.910156 -1.3125 15.546875 -0.5625 C 14.191406 0.1875 12.660156 0.5625 10.953125 0.5625 C 9.273438 0.5625 7.75 0.1875 6.375 -0.5625 C 5 -1.3125 3.90625 -2.476562 3.09375 -4.0625 C 2.28125 -5.644531 1.875 -7.71875 1.875 -10.28125 C 1.875 -12.84375 2.28125 -14.921875 3.09375 -16.515625 C 3.90625 -18.117188 5 -19.289062 6.375 -20.03125 C 7.75 -20.78125 9.273438 -21.15625 10.953125 -21.15625 Z M 10.953125 -20.359375 C 9.441406 -20.359375 8.195312 -19.570312 7.21875 -18 C 6.25 -16.425781 5.765625 -13.851562 5.765625 -10.28125 C 5.765625 -6.707031 6.25 -4.140625 7.21875 -2.578125 C 8.195312 -1.015625 9.441406 -0.234375 10.953125 -0.234375 C 12.472656 -0.234375 13.71875 -1.015625 14.6875 -2.578125 C 15.664062 -4.140625 16.15625 -6.707031 16.15625 -10.28125 C 16.15625 -13.851562 15.664062 -16.425781 14.6875 -18 C 13.71875 -19.570312 12.472656 -20.359375 10.953125 -20.359375 Z M 10.953125 -20.359375 "/></g></g></g><g fill="#bc9c22" fill-opacity="1"><g transform="translate(155.677612, 202.499987)"><g><path d="M 14.359375 -21.15625 C 15.296875 -21.15625 16.109375 -21.019531 16.796875 -20.75 C 17.492188 -20.488281 18.066406 -20.117188 18.515625 -19.640625 C 19.023438 -19.109375 19.375 -18.414062 19.5625 -17.5625 C 19.75 -16.707031 19.84375 -15.65625 19.84375 -14.40625 L 19.84375 -3.71875 C 19.84375 -2.601562 20.070312 -1.84375 20.53125 -1.4375 C 21 -1.039062 21.78125 -0.84375 22.875 -0.84375 L 22.875 0 C 22.425781 -0.03125 21.734375 -0.0625 20.796875 -0.09375 C 19.867188 -0.132812 18.960938 -0.15625 18.078125 -0.15625 C 17.203125 -0.15625 16.34375 -0.132812 15.5 -0.09375 C 14.65625 -0.0625 14.019531 -0.03125 13.59375 0 L 13.59375 -0.84375 C 14.5625 -0.84375 15.242188 -1.039062 15.640625 -1.4375 C 16.035156 -1.84375 16.234375 -2.601562 16.234375 -3.71875 L 16.234375 -15.28125 C 16.234375 -16.101562 16.179688 -16.859375 16.078125 -17.546875 C 15.972656 -18.242188 15.707031 -18.804688 15.28125 -19.234375 C 14.851562 -19.660156 14.160156 -19.875 13.203125 -19.875 C 12.160156 -19.875 11.234375 -19.550781 10.421875 -18.90625 C 9.609375 -18.269531 8.96875 -17.398438 8.5 -16.296875 C 8.03125 -15.191406 7.796875 -13.957031 7.796875 -12.59375 L 7.796875 -3.71875 C 7.796875 -2.601562 7.992188 -1.84375 8.390625 -1.4375 C 8.796875 -1.039062 9.476562 -0.84375 10.4375 -0.84375 L 10.4375 0 C 10.007812 -0.03125 9.375 -0.0625 8.53125 -0.09375 C 7.695312 -0.132812 6.835938 -0.15625 5.953125 -0.15625 C 5.078125 -0.15625 4.171875 -0.132812 3.234375 -0.09375 C 2.304688 -0.0625 1.613281 -0.03125 1.15625 0 L 1.15625 -0.84375 C 2.25 -0.84375 3.03125 -1.039062 3.5 -1.4375 C 3.96875 -1.84375 4.203125 -2.601562 4.203125 -3.71875 L 4.203125 -16.234375 C 4.203125 -17.441406 3.988281 -18.332031 3.5625 -18.90625 C 3.132812 -19.476562 2.332031 -19.765625 1.15625 -19.765625 L 1.15625 -20.59375 C 2.007812 -20.519531 2.835938 -20.484375 3.640625 -20.484375 C 4.410156 -20.484375 5.148438 -20.53125 5.859375 -20.625 C 6.566406 -20.71875 7.210938 -20.859375 7.796875 -21.046875 L 7.796875 -16.3125 C 8.492188 -18.050781 9.441406 -19.289062 10.640625 -20.03125 C 11.835938 -20.78125 13.078125 -21.15625 14.359375 -21.15625 Z M 26.40625 -21.15625 C 27.332031 -21.15625 28.140625 -21.019531 28.828125 -20.75 C 29.523438 -20.488281 30.101562 -20.117188 30.5625 -19.640625 C 31.0625 -19.109375 31.40625 -18.414062 31.59375 -17.5625 C 31.78125 -16.707031 31.875 -15.65625 31.875 -14.40625 L 31.875 -3.71875 C 31.875 -2.601562 32.109375 -1.84375 32.578125 -1.4375 C 33.046875 -1.039062 33.828125 -0.84375 34.921875 -0.84375 L 34.921875 0 C 34.460938 -0.03125 33.765625 -0.0625 32.828125 -0.09375 C 31.898438 -0.132812 31 -0.15625 30.125 -0.15625 C 29.238281 -0.15625 28.375 -0.132812 27.53125 -0.09375 C 26.695312 -0.0625 26.066406 -0.03125 25.640625 0 L 25.640625 -0.84375 C 26.597656 -0.84375 27.273438 -1.039062 27.671875 -1.4375 C 28.078125 -1.84375 28.28125 -2.601562 28.28125 -3.71875 L 28.28125 -15.28125 C 28.28125 -16.101562 28.222656 -16.859375 28.109375 -17.546875 C 28.003906 -18.242188 27.738281 -18.804688 27.3125 -19.234375 C 26.894531 -19.660156 26.203125 -19.875 25.234375 -19.875 C 24.203125 -19.875 23.273438 -19.550781 22.453125 -18.90625 C 21.640625 -18.269531 21 -17.40625 20.53125 -16.3125 C 20.070312 -15.226562 19.84375 -14.003906 19.84375 -12.640625 L 19.71875 -16.359375 C 20.4375 -18.203125 21.410156 -19.460938 22.640625 -20.140625 C 23.867188 -20.816406 25.125 -21.15625 26.40625 -21.15625 Z M 26.40625 -21.15625 "/></g></g></g><g fill="#bc9c22" fill-opacity="1"><g transform="translate(199.175571, 198.456851)"><g><path d="M 30.9375 -33.4375 C 31 -33.144531 30.859375 -32.914062 30.515625 -32.75 C 30.179688 -32.59375 29.820312 -32.488281 29.4375 -32.4375 C 29.050781 -32.394531 28.765625 -32.359375 28.578125 -32.328125 C 28.191406 -32.296875 27.894531 -32.207031 27.6875 -32.0625 C 27.476562 -31.914062 27.148438 -31.796875 26.703125 -31.703125 C 26.285156 -31.609375 25.859375 -31.507812 25.421875 -31.40625 C 24.992188 -31.3125 24.554688 -31.234375 24.109375 -31.171875 C 24.015625 -31.140625 23.847656 -31.128906 23.609375 -31.140625 C 23.367188 -31.160156 23.21875 -31.140625 23.15625 -31.078125 C 22.988281 -30.953125 22.945312 -30.847656 23.03125 -30.765625 C 23.113281 -30.679688 23.140625 -30.5625 23.109375 -30.40625 C 22.972656 -29.894531 22.753906 -29.363281 22.453125 -28.8125 C 22.148438 -28.269531 21.867188 -27.757812 21.609375 -27.28125 C 21.160156 -26.414062 20.726562 -25.550781 20.3125 -24.6875 C 19.894531 -23.820312 19.460938 -22.941406 19.015625 -22.046875 C 18.597656 -21.242188 18.253906 -20.429688 17.984375 -19.609375 C 17.710938 -18.796875 17.367188 -17.972656 16.953125 -17.140625 C 16.503906 -16.242188 16.078125 -15.320312 15.671875 -14.375 C 15.273438 -13.4375 14.882812 -12.503906 14.5 -11.578125 C 14.1875 -10.867188 13.929688 -10.140625 13.734375 -9.390625 C 13.546875 -8.640625 13.304688 -7.894531 13.015625 -7.15625 C 12.566406 -6.070312 12.148438 -4.953125 11.765625 -3.796875 C 11.378906 -2.640625 11.007812 -1.488281 10.65625 -0.34375 C 11.78125 -0.46875 12.914062 -0.5625 14.0625 -0.625 C 15.21875 -0.6875 16.359375 -0.6875 17.484375 -0.625 C 17.609375 -0.625 17.757812 -0.609375 17.9375 -0.578125 C 18.113281 -0.546875 18.265625 -0.546875 18.390625 -0.578125 C 18.492188 -0.578125 18.550781 -0.625 18.5625 -0.71875 C 18.582031 -0.8125 18.640625 -0.84375 18.734375 -0.8125 C 18.984375 -0.75 19.109375 -0.59375 19.109375 -0.34375 C 19.109375 -0.0820312 18.960938 0.117188 18.671875 0.265625 C 18.390625 0.410156 18.070312 0.503906 17.71875 0.546875 C 17.363281 0.597656 17.09375 0.625 16.90625 0.625 C 16.71875 0.65625 16.554688 0.671875 16.421875 0.671875 C 16.296875 0.671875 16.171875 0.703125 16.046875 0.765625 C 15.910156 0.828125 15.769531 0.90625 15.625 1 C 15.488281 1.101562 15.320312 1.1875 15.125 1.25 L 12.625 1.78125 C 11.957031 1.90625 11.332031 2.046875 10.75 2.203125 C 10.175781 2.367188 9.539062 2.5 8.84375 2.59375 C 8.457031 2.625 8.070312 2.675781 7.6875 2.75 C 7.300781 2.832031 6.914062 2.910156 6.53125 2.984375 C 6.3125 3.015625 6.101562 3.082031 5.90625 3.1875 C 5.71875 3.300781 5.507812 3.390625 5.28125 3.453125 C 4.675781 3.648438 3.925781 3.800781 3.03125 3.90625 C 2.132812 4.019531 1.394531 3.921875 0.8125 3.609375 C 0.394531 3.347656 0.128906 2.96875 0.015625 2.46875 C -0.0859375 1.976562 0.113281 1.601562 0.625 1.34375 C 0.882812 1.1875 1.195312 1.097656 1.5625 1.078125 C 1.925781 1.066406 2.253906 1.023438 2.546875 0.953125 C 3.347656 0.796875 4.140625 0.671875 4.921875 0.578125 C 5.703125 0.484375 6.460938 0.320312 7.203125 0.09375 C 6.878906 -0.601562 6.757812 -1.320312 6.84375 -2.0625 C 6.925781 -2.800781 7.109375 -3.53125 7.390625 -4.25 C 7.679688 -4.96875 7.941406 -5.664062 8.171875 -6.34375 C 8.390625 -6.976562 8.625 -7.59375 8.875 -8.1875 C 9.132812 -8.78125 9.410156 -9.378906 9.703125 -9.984375 C 9.960938 -10.597656 10.175781 -11.207031 10.34375 -11.8125 C 10.519531 -12.425781 10.722656 -13.035156 10.953125 -13.640625 C 11.460938 -15.046875 12.03125 -16.421875 12.65625 -17.765625 C 13.28125 -19.109375 13.894531 -20.457031 14.5 -21.8125 C 15.144531 -23.1875 15.765625 -24.550781 16.359375 -25.90625 C 16.953125 -27.269531 17.566406 -28.625 18.203125 -29.96875 C 17.984375 -29.9375 17.785156 -29.875 17.609375 -29.78125 C 17.429688 -29.6875 17.210938 -29.585938 16.953125 -29.484375 C 16.628906 -29.359375 16.203125 -29.265625 15.671875 -29.203125 C 15.148438 -29.140625 14.695312 -29.09375 14.3125 -29.0625 C 13.957031 -29.0625 13.546875 -29.125 13.078125 -29.25 C 12.617188 -29.375 12.253906 -29.585938 11.984375 -29.890625 C 11.710938 -30.203125 11.671875 -30.597656 11.859375 -31.078125 C 11.960938 -31.328125 12.171875 -31.519531 12.484375 -31.65625 C 12.773438 -31.8125 13.113281 -31.90625 13.5 -31.9375 C 13.882812 -31.96875 14.234375 -32 14.546875 -32.03125 C 14.992188 -32.132812 15.441406 -32.234375 15.890625 -32.328125 C 16.347656 -32.421875 16.800781 -32.484375 17.25 -32.515625 C 17.59375 -32.546875 17.898438 -32.59375 18.171875 -32.65625 C 18.453125 -32.71875 18.75 -32.800781 19.0625 -32.90625 C 19.414062 -33 19.625 -33.078125 19.6875 -33.140625 C 19.75 -33.203125 19.878906 -33.347656 20.078125 -33.578125 C 20.265625 -33.765625 20.425781 -34.019531 20.5625 -34.34375 C 20.5625 -34.34375 20.546875 -34.375 20.515625 -34.4375 C 20.484375 -34.5 20.5 -34.578125 20.5625 -34.671875 C 20.6875 -34.835938 20.8125 -34.9375 20.9375 -34.96875 C 21.070312 -35 21.234375 -35.03125 21.421875 -35.0625 C 21.835938 -35.125 22.257812 -35.050781 22.6875 -34.84375 C 23.125 -34.632812 23.488281 -34.40625 23.78125 -34.15625 C 23.96875 -33.988281 24.097656 -33.859375 24.171875 -33.765625 C 24.253906 -33.671875 24.425781 -33.59375 24.6875 -33.53125 C 24.8125 -33.5 24.976562 -33.5 25.1875 -33.53125 C 25.394531 -33.5625 25.566406 -33.578125 25.703125 -33.578125 C 26.304688 -33.640625 26.90625 -33.675781 27.5 -33.6875 C 28.09375 -33.707031 28.691406 -33.6875 29.296875 -33.625 C 29.390625 -33.625 29.539062 -33.609375 29.75 -33.578125 C 29.957031 -33.546875 30.113281 -33.546875 30.21875 -33.578125 C 30.3125 -33.578125 30.359375 -33.625 30.359375 -33.71875 C 30.359375 -33.8125 30.40625 -33.84375 30.5 -33.8125 C 30.757812 -33.75 30.90625 -33.640625 30.9375 -33.484375 Z M 18.734375 -24.40625 C 18.953125 -24.78125 19.132812 -25.160156 19.28125 -25.546875 C 19.425781 -25.929688 19.5625 -26.332031 19.6875 -26.75 C 19.53125 -26.5 19.320312 -26.234375 19.0625 -25.953125 C 18.8125 -25.679688 18.640625 -25.421875 18.546875 -25.171875 C 18.410156 -24.847656 18.332031 -24.535156 18.3125 -24.234375 C 18.300781 -23.929688 18.265625 -23.617188 18.203125 -23.296875 C 18.265625 -23.484375 18.34375 -23.664062 18.4375 -23.84375 C 18.539062 -24.019531 18.640625 -24.207031 18.734375 -24.40625 Z M 16.765625 -21.703125 C 16.890625 -21.929688 16.972656 -22.15625 17.015625 -22.375 C 17.066406 -22.601562 17.144531 -22.832031 17.25 -23.0625 C 17.144531 -22.925781 17.050781 -22.800781 16.96875 -22.6875 C 16.894531 -22.582031 16.828125 -22.476562 16.765625 -22.375 C 16.640625 -22.09375 16.523438 -21.804688 16.421875 -21.515625 C 16.328125 -21.222656 16.21875 -20.9375 16.09375 -20.65625 Z M 16.765625 -21.703125 "/></g></g></g><g fill="#bc9c22" fill-opacity="1"><g transform="translate(220.690038, 198.456851)"><g><path d="M 8.9375 -11.4375 C 9.601562 -12.457031 10.28125 -13.492188 10.96875 -14.546875 C 11.664062 -15.609375 12.363281 -16.648438 13.0625 -17.671875 L 11.8125 -15.953125 L 10.09375 -13.59375 C 11.6875 -15.988281 13.332031 -18.347656 15.03125 -20.671875 C 16.726562 -22.992188 18.539062 -25.226562 20.46875 -27.375 C 20.914062 -27.851562 21.472656 -28.421875 22.140625 -29.078125 C 22.816406 -29.734375 23.535156 -30.359375 24.296875 -30.953125 C 25.066406 -31.546875 25.84375 -31.960938 26.625 -32.203125 C 27.414062 -32.441406 28.144531 -32.398438 28.8125 -32.078125 C 29.488281 -31.765625 30.035156 -31.03125 30.453125 -29.875 L 30.453125 -29.78125 C 30.515625 -29.65625 30.546875 -29.578125 30.546875 -29.546875 C 30.898438 -28.390625 30.976562 -27.21875 30.78125 -26.03125 C 30.59375 -24.84375 30.234375 -23.664062 29.703125 -22.5 C 29.179688 -21.332031 28.597656 -20.203125 27.953125 -19.109375 C 27.316406 -18.023438 26.738281 -16.988281 26.21875 -16 C 26.382812 -16.21875 26.5 -16.328125 26.5625 -16.328125 C 26.5625 -16.328125 26.488281 -16.164062 26.34375 -15.84375 C 26.195312 -15.53125 26.035156 -15.15625 25.859375 -14.71875 C 25.679688 -14.289062 25.515625 -13.898438 25.359375 -13.546875 C 25.203125 -13.191406 25.109375 -12.96875 25.078125 -12.875 C 24.816406 -12.300781 24.550781 -11.707031 24.28125 -11.09375 C 24.007812 -10.488281 23.726562 -9.878906 23.4375 -9.265625 C 22.800781 -7.859375 22.160156 -6.441406 21.515625 -5.015625 C 20.878906 -3.585938 20.269531 -2.140625 19.6875 -0.671875 C 19.269531 0.410156 18.820312 1.578125 18.34375 2.828125 C 17.863281 4.078125 17.625 5.3125 17.625 6.53125 C 17.65625 7.238281 17.894531 7.734375 18.34375 8.015625 C 18.789062 8.304688 19.332031 8.46875 19.96875 8.5 C 20.613281 8.53125 21.210938 8.53125 21.765625 8.5 C 22.109375 8.4375 22.445312 8.359375 22.78125 8.265625 C 23.125 8.171875 23.457031 8.070312 23.78125 7.96875 C 24 7.90625 24.289062 7.769531 24.65625 7.5625 C 25.03125 7.351562 25.328125 7.265625 25.546875 7.296875 C 25.898438 7.328125 25.992188 7.507812 25.828125 7.84375 C 25.671875 8.1875 25.457031 8.535156 25.1875 8.890625 C 24.914062 9.242188 24.734375 9.46875 24.640625 9.5625 C 23.929688 10.257812 23.039062 10.84375 21.96875 11.3125 C 20.894531 11.78125 19.847656 11.851562 18.828125 11.53125 C 17.804688 11.175781 16.957031 10.492188 16.28125 9.484375 C 15.613281 8.472656 15.101562 7.488281 14.75 6.53125 C 14.332031 5.34375 14.097656 4.125 14.046875 2.875 C 14.003906 1.632812 14.109375 0.40625 14.359375 -0.8125 C 14.617188 -1.90625 14.988281 -2.945312 15.46875 -3.9375 C 15.945312 -4.925781 16.394531 -5.921875 16.8125 -6.921875 C 16.8125 -6.953125 16.84375 -7.117188 16.90625 -7.421875 C 16.96875 -7.722656 17.0625 -7.9375 17.1875 -8.0625 C 17.15625 -8 17.109375 -7.835938 17.046875 -7.578125 C 16.984375 -7.328125 16.953125 -7.203125 16.953125 -7.203125 L 17.4375 -8.40625 C 17.40625 -8.375 17.375 -8.375 17.34375 -8.40625 C 17.3125 -8.726562 17.421875 -9.128906 17.671875 -9.609375 C 17.929688 -10.085938 18.125 -10.472656 18.25 -10.765625 L 19.546875 -13.359375 C 19.960938 -14.179688 20.367188 -14.992188 20.765625 -15.796875 C 21.171875 -16.597656 21.535156 -17.414062 21.859375 -18.25 C 22.203125 -19.082031 22.566406 -19.90625 22.953125 -20.71875 C 23.335938 -21.539062 23.738281 -22.351562 24.15625 -23.15625 C 24.21875 -23.25 24.34375 -23.507812 24.53125 -23.9375 C 24.726562 -24.375 24.945312 -24.835938 25.1875 -25.328125 C 25.425781 -25.828125 25.648438 -26.269531 25.859375 -26.65625 C 26.066406 -27.039062 26.203125 -27.234375 26.265625 -27.234375 C 26.265625 -27.234375 26.222656 -27.113281 26.140625 -26.875 C 26.066406 -26.632812 26.046875 -26.5 26.078125 -26.46875 C 26.242188 -26.882812 26.445312 -27.382812 26.6875 -27.96875 C 26.925781 -28.5625 26.976562 -29.066406 26.84375 -29.484375 C 26.84375 -29.453125 26.832031 -29.300781 26.8125 -29.03125 C 26.800781 -28.757812 26.765625 -28.625 26.703125 -28.625 C 26.671875 -28.65625 26.660156 -28.820312 26.671875 -29.125 C 26.691406 -29.4375 26.609375 -29.625 26.421875 -29.6875 C 26.285156 -29.71875 26.140625 -29.679688 25.984375 -29.578125 C 25.828125 -29.484375 25.71875 -29.40625 25.65625 -29.34375 C 25.039062 -29.019531 24.476562 -28.585938 23.96875 -28.046875 C 23.457031 -27.503906 22.976562 -26.960938 22.53125 -26.421875 C 21.4375 -25.234375 20.375 -24 19.34375 -22.71875 C 18.320312 -21.4375 17.347656 -20.140625 16.421875 -18.828125 C 15.941406 -18.148438 15.460938 -17.46875 14.984375 -16.78125 C 14.503906 -16.09375 14.007812 -15.429688 13.5 -14.796875 C 13.332031 -14.566406 13.144531 -14.375 12.9375 -14.21875 C 12.726562 -14.0625 12.546875 -13.898438 12.390625 -13.734375 C 12.171875 -13.515625 11.992188 -13.25 11.859375 -12.9375 C 11.734375 -12.632812 11.59375 -12.359375 11.4375 -12.109375 C 10.570312 -10.660156 9.671875 -9.238281 8.734375 -7.84375 C 7.804688 -6.457031 6.925781 -5.023438 6.09375 -3.546875 C 5.75 -2.972656 5.4375 -2.394531 5.15625 -1.8125 C 4.882812 -1.238281 4.625 -0.632812 4.375 0 C 4.238281 0.351562 4.113281 0.773438 4 1.265625 C 3.894531 1.765625 3.679688 2.144531 3.359375 2.40625 C 2.878906 2.882812 2.382812 3.039062 1.875 2.875 C 1.363281 2.71875 0.929688 2.390625 0.578125 1.890625 C 0.222656 1.398438 0.03125 0.898438 0 0.390625 C -0.03125 -0.671875 0.144531 -1.769531 0.53125 -2.90625 C 0.914062 -4.039062 1.285156 -5.101562 1.640625 -6.09375 C 2.085938 -7.34375 2.601562 -8.5625 3.1875 -9.75 C 3.78125 -10.9375 4.285156 -12.15625 4.703125 -13.40625 C 5.316406 -15.289062 6.03125 -17.144531 6.84375 -18.96875 C 7.65625 -20.789062 8.460938 -22.613281 9.265625 -24.4375 C 10.066406 -26.269531 10.707031 -28.144531 11.1875 -30.0625 C 11.25 -30.320312 11.335938 -30.664062 11.453125 -31.09375 C 11.566406 -31.53125 11.640625 -31.957031 11.671875 -32.375 C 11.703125 -32.789062 11.585938 -33.09375 11.328125 -33.28125 C 11.046875 -33.507812 10.679688 -33.535156 10.234375 -33.359375 C 9.785156 -33.179688 9.429688 -33.015625 9.171875 -32.859375 C 8.210938 -32.273438 7.394531 -31.492188 6.71875 -30.515625 C 6.050781 -29.546875 5.460938 -28.597656 4.953125 -27.671875 C 4.429688 -26.773438 4 -25.828125 3.65625 -24.828125 C 3.550781 -24.609375 3.453125 -24.378906 3.359375 -24.140625 C 3.265625 -23.898438 3.203125 -23.648438 3.171875 -23.390625 C 3.171875 -23.359375 3.203125 -23.257812 3.265625 -23.09375 C 3.328125 -22.9375 3.3125 -22.765625 3.21875 -22.578125 C 2.925781 -22.066406 2.492188 -21.96875 1.921875 -22.28125 C 1.441406 -22.539062 1.144531 -23 1.03125 -23.65625 C 0.914062 -24.3125 0.875 -24.878906 0.90625 -25.359375 C 0.90625 -26.003906 0.992188 -26.613281 1.171875 -27.1875 C 1.347656 -27.757812 1.597656 -28.316406 1.921875 -28.859375 C 2.015625 -29.023438 2.125 -29.179688 2.25 -29.328125 C 2.382812 -29.472656 2.5 -29.640625 2.59375 -29.828125 C 2.6875 -30.046875 2.753906 -30.269531 2.796875 -30.5 C 2.847656 -30.726562 2.957031 -30.953125 3.125 -31.171875 C 4.59375 -33.316406 6.53125 -34.757812 8.9375 -35.5 C 9.632812 -35.71875 10.335938 -35.828125 11.046875 -35.828125 C 11.753906 -35.828125 12.410156 -35.585938 13.015625 -35.109375 C 13.554688 -34.691406 13.90625 -34.191406 14.0625 -33.609375 C 14.226562 -33.035156 14.390625 -32.445312 14.546875 -31.84375 C 14.898438 -30.65625 14.914062 -29.484375 14.59375 -28.328125 C 14.28125 -27.179688 13.960938 -26.015625 13.640625 -24.828125 C 13.316406 -23.609375 12.90625 -22.40625 12.40625 -21.21875 C 11.914062 -20.039062 11.492188 -18.84375 11.140625 -17.625 C 10.921875 -16.726562 10.648438 -15.847656 10.328125 -14.984375 C 10.003906 -14.117188 9.664062 -13.253906 9.3125 -12.390625 L 9.5625 -12.78125 C 9.300781 -12.363281 9.09375 -11.914062 8.9375 -11.4375 Z M 24.875 -22 L 21.234375 -14.546875 C 21.773438 -15.578125 22.347656 -16.578125 22.953125 -17.546875 C 23.566406 -18.523438 24.144531 -19.53125 24.6875 -20.5625 C 25.363281 -21.8125 25.972656 -23.113281 26.515625 -24.46875 C 27.054688 -25.832031 27.488281 -27.21875 27.8125 -28.625 C 27.78125 -28.59375 27.765625 -28.566406 27.765625 -28.546875 C 27.765625 -28.535156 27.78125 -28.59375 27.8125 -28.71875 L 27.8125 -28.8125 C 27.6875 -28.269531 27.492188 -27.675781 27.234375 -27.03125 C 26.972656 -26.394531 26.8125 -26.015625 26.75 -25.890625 Z M 5.46875 -13.59375 L 5.671875 -14.171875 C 5.253906 -13.078125 4.769531 -11.984375 4.21875 -10.890625 C 3.675781 -9.804688 3.164062 -8.722656 2.6875 -7.640625 C 2.050781 -6.097656 1.523438 -4.59375 1.109375 -3.125 C 0.910156 -2.445312 0.765625 -1.742188 0.671875 -1.015625 C 0.640625 -0.847656 0.644531 -0.617188 0.6875 -0.328125 C 0.738281 -0.046875 0.75 0.175781 0.71875 0.34375 C 0.8125 0.0820312 0.859375 -0.195312 0.859375 -0.5 C 0.859375 -0.800781 0.875 -1.097656 0.90625 -1.390625 C 0.976562 -1.710938 1.050781 -2.03125 1.125 -2.34375 C 1.207031 -2.664062 1.296875 -2.988281 1.390625 -3.3125 C 1.617188 -4.019531 1.851562 -4.71875 2.09375 -5.40625 C 2.332031 -6.09375 2.613281 -6.769531 2.9375 -7.4375 C 3.382812 -8.4375 3.835938 -9.445312 4.296875 -10.46875 C 4.765625 -11.5 5.15625 -12.523438 5.46875 -13.546875 Z M 6 -14.890625 C 6.226562 -15.109375 6.257812 -15.253906 6.09375 -15.328125 C 5.90625 -15.097656 5.875 -14.953125 6 -14.890625 Z M 20.46875 -27.140625 C 20.175781 -26.847656 19.894531 -26.550781 19.625 -26.25 C 19.351562 -25.945312 19.085938 -25.617188 18.828125 -25.265625 C 19.085938 -25.585938 19.351562 -25.898438 19.625 -26.203125 C 19.894531 -26.503906 20.175781 -26.816406 20.46875 -27.140625 Z M 9.890625 -13.25 C 9.828125 -13.1875 9.765625 -13.09375 9.703125 -12.96875 Z M 17.8125 -24.015625 C 17.78125 -23.984375 17.765625 -23.953125 17.765625 -23.921875 L 17.96875 -24.203125 Z M 27.8125 -28.8125 C 27.8125 -28.84375 27.816406 -28.875 27.828125 -28.90625 C 27.847656 -28.945312 27.859375 -28.984375 27.859375 -29.015625 C 27.859375 -28.984375 27.847656 -28.957031 27.828125 -28.9375 C 27.816406 -28.925781 27.8125 -28.882812 27.8125 -28.8125 Z M 18.546875 -24.875 L 18.828125 -25.265625 Z M 30.546875 -29.546875 L 30.5 -29.6875 C 30.5 -29.625 30.515625 -29.578125 30.546875 -29.546875 Z M 6 -14.890625 C 6 -14.921875 6.003906 -14.9375 6.015625 -14.9375 C 6.035156 -14.9375 6.046875 -14.9375 6.046875 -14.9375 Z M 17.8125 -24.015625 C 17.8125 -23.984375 17.800781 -23.96875 17.78125 -23.96875 C 17.769531 -23.96875 17.765625 -23.96875 17.765625 -23.96875 C 17.796875 -23.96875 17.8125 -23.972656 17.8125 -23.984375 C 17.8125 -24.003906 17.8125 -24.015625 17.8125 -24.015625 Z M 9.703125 -12.96875 L 9.5625 -12.78125 Z M 9.703125 -12.96875 "/></g></g></g><g fill="#bc9c22" fill-opacity="1"><g transform="translate(248.255445, 198.456851)"><g><path d="M 8.21875 -23 L 8.5 -17.53125 C 8.59375 -15.957031 8.503906 -14.398438 8.234375 -12.859375 C 7.960938 -11.328125 7.734375 -9.828125 7.546875 -8.359375 C 7.609375 -8.546875 7.671875 -8.671875 7.734375 -8.734375 C 7.828125 -8.804688 7.859375 -8.671875 7.828125 -8.328125 C 7.796875 -7.992188 7.78125 -7.8125 7.78125 -7.78125 C 8.414062 -9 9.117188 -10.164062 9.890625 -11.28125 C 10.660156 -12.40625 11.347656 -13.5625 11.953125 -14.75 C 12.890625 -16.507812 13.972656 -18.1875 15.203125 -19.78125 C 16.429688 -21.382812 17.640625 -22.972656 18.828125 -24.546875 C 19.847656 -25.859375 20.894531 -27.15625 21.96875 -28.4375 C 23.039062 -29.71875 24.171875 -30.953125 25.359375 -32.140625 C 25.898438 -32.679688 26.46875 -33.164062 27.0625 -33.59375 C 27.65625 -34.03125 28.222656 -34.488281 28.765625 -34.96875 C 28.929688 -35.09375 29.015625 -35.195312 29.015625 -35.28125 C 29.015625 -35.363281 29.125 -35.4375 29.34375 -35.5 C 29.726562 -35.625 30.117188 -35.5 30.515625 -35.125 C 30.921875 -34.757812 31.1875 -34.421875 31.3125 -34.109375 C 31.476562 -33.691406 31.429688 -33.328125 31.171875 -33.015625 C 30.910156 -32.710938 30.554688 -32.445312 30.109375 -32.21875 C 29.660156 -32 29.21875 -31.800781 28.78125 -31.625 C 28.351562 -31.445312 28.046875 -31.265625 27.859375 -31.078125 C 27.660156 -30.921875 27.519531 -30.742188 27.4375 -30.546875 C 27.363281 -30.359375 27.234375 -30.164062 27.046875 -29.96875 C 26.847656 -29.75 26.628906 -29.550781 26.390625 -29.375 C 26.148438 -29.195312 25.921875 -28.992188 25.703125 -28.765625 C 25.179688 -28.285156 24.664062 -27.8125 24.15625 -27.34375 C 23.644531 -26.882812 23.164062 -26.382812 22.71875 -25.84375 C 21.144531 -24.019531 19.644531 -22.15625 18.21875 -20.25 C 16.800781 -18.34375 15.421875 -16.394531 14.078125 -14.40625 C 13.785156 -13.988281 13.46875 -13.554688 13.125 -13.109375 C 12.789062 -12.660156 12.515625 -12.195312 12.296875 -11.71875 C 12.171875 -11.5 12.054688 -11.226562 11.953125 -10.90625 C 11.859375 -10.582031 11.734375 -10.289062 11.578125 -10.03125 C 10.867188 -8.789062 10.140625 -7.550781 9.390625 -6.3125 C 8.640625 -5.082031 7.925781 -3.8125 7.25 -2.5 C 6.800781 -1.601562 6.441406 -0.632812 6.171875 0.40625 C 5.898438 1.445312 5.457031 2.367188 4.84375 3.171875 C 4.65625 3.390625 4.304688 3.601562 3.796875 3.8125 C 3.285156 4.019531 2.734375 4.148438 2.140625 4.203125 C 1.546875 4.253906 1.039062 4.191406 0.625 4.015625 C 0.207031 3.835938 0 3.492188 0 2.984375 C 0 2.628906 0.117188 2.25 0.359375 1.84375 C 0.597656 1.445312 0.78125 1.085938 0.90625 0.765625 C 1.164062 0.0234375 1.359375 -0.707031 1.484375 -1.4375 C 1.617188 -2.175781 1.75 -2.914062 1.875 -3.65625 C 1.96875 -4.351562 2.0625 -5.0625 2.15625 -5.78125 C 2.257812 -6.507812 2.40625 -7.207031 2.59375 -7.875 C 2.65625 -8.132812 2.71875 -8.351562 2.78125 -8.53125 C 2.84375 -8.707031 2.894531 -8.90625 2.9375 -9.125 C 2.9375 -9.125 2.9375 -9.304688 2.9375 -9.671875 C 2.9375 -10.046875 2.953125 -10.25 2.984375 -10.28125 C 2.984375 -10.25 2.988281 -10.222656 3 -10.203125 C 3.019531 -10.191406 3.03125 -10.171875 3.03125 -10.140625 C 3.03125 -10.203125 3.035156 -10.253906 3.046875 -10.296875 C 3.066406 -10.347656 3.078125 -10.40625 3.078125 -10.46875 C 3.015625 -10.25 2.960938 -10.289062 2.921875 -10.59375 C 2.890625 -10.894531 2.875 -11.0625 2.875 -11.09375 C 2.84375 -11.320312 2.84375 -11.539062 2.875 -11.75 C 2.914062 -11.957031 2.9375 -12.171875 2.9375 -12.390625 C 3 -12.898438 3.046875 -13.394531 3.078125 -13.875 C 3.109375 -14.351562 3.09375 -14.851562 3.03125 -15.375 C 3.03125 -15.5 3.003906 -15.820312 2.953125 -16.34375 C 2.898438 -16.875 2.863281 -17.441406 2.84375 -18.046875 C 2.832031 -18.660156 2.84375 -19.195312 2.875 -19.65625 C 2.914062 -20.125 3 -20.375 3.125 -20.40625 C 3.1875 -20.445312 3.21875 -20.398438 3.21875 -20.265625 C 3.21875 -20.140625 3.234375 -20.078125 3.265625 -20.078125 C 3.234375 -20.296875 3.21875 -20.515625 3.21875 -20.734375 C 3.21875 -20.960938 3.21875 -21.191406 3.21875 -21.421875 C 3.1875 -21.390625 3.171875 -21.347656 3.171875 -21.296875 C 3.171875 -21.253906 3.15625 -21.21875 3.125 -21.1875 C 3.125 -21.21875 3.097656 -21.503906 3.046875 -22.046875 C 3.003906 -22.585938 2.945312 -23.207031 2.875 -23.90625 C 2.8125 -24.613281 2.75 -25.253906 2.6875 -25.828125 C 2.625 -26.410156 2.59375 -26.75 2.59375 -26.84375 C 2.5625 -27.320312 2.503906 -27.796875 2.421875 -28.265625 C 2.347656 -28.734375 2.273438 -29.191406 2.203125 -29.640625 C 2.171875 -29.890625 2.128906 -30.140625 2.078125 -30.390625 C 2.035156 -30.648438 2 -30.894531 1.96875 -31.125 C 1.9375 -31.3125 1.941406 -31.5 1.984375 -31.6875 C 2.035156 -31.882812 2.0625 -32.050781 2.0625 -32.1875 C 2.0625 -32.34375 2.03125 -32.492188 1.96875 -32.640625 C 1.90625 -32.785156 1.890625 -32.96875 1.921875 -33.1875 C 1.984375 -33.570312 2.195312 -33.914062 2.5625 -34.21875 C 2.9375 -34.519531 3.265625 -34.785156 3.546875 -35.015625 C 3.929688 -35.273438 4.359375 -35.53125 4.828125 -35.78125 C 5.296875 -36.039062 5.769531 -36.1875 6.25 -36.21875 C 6.632812 -36.28125 6.863281 -36.222656 6.9375 -36.046875 C 7.019531 -35.867188 7.09375 -35.65625 7.15625 -35.40625 C 7.15625 -35.4375 7.1875 -35.515625 7.25 -35.640625 C 7.3125 -35.671875 7.375 -35.515625 7.4375 -35.171875 C 7.507812 -34.835938 7.566406 -34.503906 7.609375 -34.171875 C 7.660156 -33.835938 7.65625 -33.65625 7.59375 -33.625 C 7.53125 -33.59375 7.460938 -33.703125 7.390625 -33.953125 C 7.523438 -33.148438 7.640625 -32.332031 7.734375 -31.5 C 7.828125 -30.675781 7.890625 -29.847656 7.921875 -29.015625 C 7.890625 -29.679688 7.863281 -30.265625 7.84375 -30.765625 C 7.832031 -31.265625 7.828125 -31.515625 7.828125 -31.515625 C 7.828125 -31.515625 7.847656 -31.148438 7.890625 -30.421875 C 7.941406 -29.703125 7.984375 -28.816406 8.015625 -27.765625 L 8.015625 -27.234375 L 8.015625 -27.28125 L 8.015625 -27.1875 L 8.015625 -27.234375 L 8.015625 -27.140625 L 8.015625 -27.1875 C 8.015625 -27.15625 8.019531 -27.128906 8.03125 -27.109375 C 8.050781 -27.097656 8.0625 -27.0625 8.0625 -27 C 8.0625 -27.03125 8.050781 -27.050781 8.03125 -27.0625 C 8.019531 -27.082031 8.015625 -27.109375 8.015625 -27.140625 C 8.015625 -27.046875 8.03125 -26.960938 8.0625 -26.890625 C 8.0625 -26.765625 8.0625 -26.628906 8.0625 -26.484375 C 8.0625 -26.335938 8.082031 -26.1875 8.125 -26.03125 C 8.125 -26.03125 8.113281 -26.03125 8.09375 -26.03125 C 8.070312 -26.03125 8.0625 -26.046875 8.0625 -26.078125 L 8.21875 -23 C 8.21875 -23.039062 8.207031 -23.078125 8.1875 -23.109375 C 8.175781 -23.140625 8.171875 -23.171875 8.171875 -23.203125 C 8.171875 -23.171875 8.175781 -23.140625 8.1875 -23.109375 C 8.207031 -23.078125 8.21875 -23.039062 8.21875 -23 Z M 4.328125 -12.0625 L 4.328125 -12.203125 C 4.390625 -13.222656 4.421875 -14.273438 4.421875 -15.359375 C 4.421875 -16.453125 4.40625 -17.53125 4.375 -18.59375 C 4.40625 -16.507812 4.335938 -14.425781 4.171875 -12.34375 C 4.015625 -10.257812 3.789062 -8.175781 3.5 -6.09375 C 3.375 -5.257812 3.226562 -4.421875 3.0625 -3.578125 C 2.90625 -2.734375 2.75 -1.894531 2.59375 -1.0625 C 2.5625 -0.832031 2.515625 -0.613281 2.453125 -0.40625 C 2.390625 -0.195312 2.320312 -0.015625 2.25 0.140625 C 2.601562 -0.753906 2.894531 -1.679688 3.125 -2.640625 C 3.476562 -4.210938 3.734375 -5.78125 3.890625 -7.34375 C 4.046875 -8.914062 4.191406 -10.488281 4.328125 -12.0625 Z M 4.328125 -12.0625 "/></g></g></g><g fill="#bc9c22" fill-opacity="1"><g transform="translate(265.639902, 198.456851)"><g><path d="M 30.9375 -33.4375 C 31 -33.144531 30.859375 -32.914062 30.515625 -32.75 C 30.179688 -32.59375 29.820312 -32.488281 29.4375 -32.4375 C 29.050781 -32.394531 28.765625 -32.359375 28.578125 -32.328125 C 28.191406 -32.296875 27.894531 -32.207031 27.6875 -32.0625 C 27.476562 -31.914062 27.148438 -31.796875 26.703125 -31.703125 C 26.285156 -31.609375 25.859375 -31.507812 25.421875 -31.40625 C 24.992188 -31.3125 24.554688 -31.234375 24.109375 -31.171875 C 24.015625 -31.140625 23.847656 -31.128906 23.609375 -31.140625 C 23.367188 -31.160156 23.21875 -31.140625 23.15625 -31.078125 C 22.988281 -30.953125 22.945312 -30.847656 23.03125 -30.765625 C 23.113281 -30.679688 23.140625 -30.5625 23.109375 -30.40625 C 22.972656 -29.894531 22.753906 -29.363281 22.453125 -28.8125 C 22.148438 -28.269531 21.867188 -27.757812 21.609375 -27.28125 C 21.160156 -26.414062 20.726562 -25.550781 20.3125 -24.6875 C 19.894531 -23.820312 19.460938 -22.941406 19.015625 -22.046875 C 18.597656 -21.242188 18.253906 -20.429688 17.984375 -19.609375 C 17.710938 -18.796875 17.367188 -17.972656 16.953125 -17.140625 C 16.503906 -16.242188 16.078125 -15.320312 15.671875 -14.375 C 15.273438 -13.4375 14.882812 -12.503906 14.5 -11.578125 C 14.1875 -10.867188 13.929688 -10.140625 13.734375 -9.390625 C 13.546875 -8.640625 13.304688 -7.894531 13.015625 -7.15625 C 12.566406 -6.070312 12.148438 -4.953125 11.765625 -3.796875 C 11.378906 -2.640625 11.007812 -1.488281 10.65625 -0.34375 C 11.78125 -0.46875 12.914062 -0.5625 14.0625 -0.625 C 15.21875 -0.6875 16.359375 -0.6875 17.484375 -0.625 C 17.609375 -0.625 17.757812 -0.609375 17.9375 -0.578125 C 18.113281 -0.546875 18.265625 -0.546875 18.390625 -0.578125 C 18.492188 -0.578125 18.550781 -0.625 18.5625 -0.71875 C 18.582031 -0.8125 18.640625 -0.84375 18.734375 -0.8125 C 18.984375 -0.75 19.109375 -0.59375 19.109375 -0.34375 C 19.109375 -0.0820312 18.960938 0.117188 18.671875 0.265625 C 18.390625 0.410156 18.070312 0.503906 17.71875 0.546875 C 17.363281 0.597656 17.09375 0.625 16.90625 0.625 C 16.71875 0.65625 16.554688 0.671875 16.421875 0.671875 C 16.296875 0.671875 16.171875 0.703125 16.046875 0.765625 C 15.910156 0.828125 15.769531 0.90625 15.625 1 C 15.488281 1.101562 15.320312 1.1875 15.125 1.25 L 12.625 1.78125 C 11.957031 1.90625 11.332031 2.046875 10.75 2.203125 C 10.175781 2.367188 9.539062 2.5 8.84375 2.59375 C 8.457031 2.625 8.070312 2.675781 7.6875 2.75 C 7.300781 2.832031 6.914062 2.910156 6.53125 2.984375 C 6.3125 3.015625 6.101562 3.082031 5.90625 3.1875 C 5.71875 3.300781 5.507812 3.390625 5.28125 3.453125 C 4.675781 3.648438 3.925781 3.800781 3.03125 3.90625 C 2.132812 4.019531 1.394531 3.921875 0.8125 3.609375 C 0.394531 3.347656 0.128906 2.96875 0.015625 2.46875 C -0.0859375 1.976562 0.113281 1.601562 0.625 1.34375 C 0.882812 1.1875 1.195312 1.097656 1.5625 1.078125 C 1.925781 1.066406 2.253906 1.023438 2.546875 0.953125 C 3.347656 0.796875 4.140625 0.671875 4.921875 0.578125 C 5.703125 0.484375 6.460938 0.320312 7.203125 0.09375 C 6.878906 -0.601562 6.757812 -1.320312 6.84375 -2.0625 C 6.925781 -2.800781 7.109375 -3.53125 7.390625 -4.25 C 7.679688 -4.96875 7.941406 -5.664062 8.171875 -6.34375 C 8.390625 -6.976562 8.625 -7.59375 8.875 -8.1875 C 9.132812 -8.78125 9.410156 -9.378906 9.703125 -9.984375 C 9.960938 -10.597656 10.175781 -11.207031 10.34375 -11.8125 C 10.519531 -12.425781 10.722656 -13.035156 10.953125 -13.640625 C 11.460938 -15.046875 12.03125 -16.421875 12.65625 -17.765625 C 13.28125 -19.109375 13.894531 -20.457031 14.5 -21.8125 C 15.144531 -23.1875 15.765625 -24.550781 16.359375 -25.90625 C 16.953125 -27.269531 17.566406 -28.625 18.203125 -29.96875 C 17.984375 -29.9375 17.785156 -29.875 17.609375 -29.78125 C 17.429688 -29.6875 17.210938 -29.585938 16.953125 -29.484375 C 16.628906 -29.359375 16.203125 -29.265625 15.671875 -29.203125 C 15.148438 -29.140625 14.695312 -29.09375 14.3125 -29.0625 C 13.957031 -29.0625 13.546875 -29.125 13.078125 -29.25 C 12.617188 -29.375 12.253906 -29.585938 11.984375 -29.890625 C 11.710938 -30.203125 11.671875 -30.597656 11.859375 -31.078125 C 11.960938 -31.328125 12.171875 -31.519531 12.484375 -31.65625 C 12.773438 -31.8125 13.113281 -31.90625 13.5 -31.9375 C 13.882812 -31.96875 14.234375 -32 14.546875 -32.03125 C 14.992188 -32.132812 15.441406 -32.234375 15.890625 -32.328125 C 16.347656 -32.421875 16.800781 -32.484375 17.25 -32.515625 C 17.59375 -32.546875 17.898438 -32.59375 18.171875 -32.65625 C 18.453125 -32.71875 18.75 -32.800781 19.0625 -32.90625 C 19.414062 -33 19.625 -33.078125 19.6875 -33.140625 C 19.75 -33.203125 19.878906 -33.347656 20.078125 -33.578125 C 20.265625 -33.765625 20.425781 -34.019531 20.5625 -34.34375 C 20.5625 -34.34375 20.546875 -34.375 20.515625 -34.4375 C 20.484375 -34.5 20.5 -34.578125 20.5625 -34.671875 C 20.6875 -34.835938 20.8125 -34.9375 20.9375 -34.96875 C 21.070312 -35 21.234375 -35.03125 21.421875 -35.0625 C 21.835938 -35.125 22.257812 -35.050781 22.6875 -34.84375 C 23.125 -34.632812 23.488281 -34.40625 23.78125 -34.15625 C 23.96875 -33.988281 24.097656 -33.859375 24.171875 -33.765625 C 24.253906 -33.671875 24.425781 -33.59375 24.6875 -33.53125 C 24.8125 -33.5 24.976562 -33.5 25.1875 -33.53125 C 25.394531 -33.5625 25.566406 -33.578125 25.703125 -33.578125 C 26.304688 -33.640625 26.90625 -33.675781 27.5 -33.6875 C 28.09375 -33.707031 28.691406 -33.6875 29.296875 -33.625 C 29.390625 -33.625 29.539062 -33.609375 29.75 -33.578125 C 29.957031 -33.546875 30.113281 -33.546875 30.21875 -33.578125 C 30.3125 -33.578125 30.359375 -33.625 30.359375 -33.71875 C 30.359375 -33.8125 30.40625 -33.84375 30.5 -33.8125 C 30.757812 -33.75 30.90625 -33.640625 30.9375 -33.484375 Z M 18.734375 -24.40625 C 18.953125 -24.78125 19.132812 -25.160156 19.28125 -25.546875 C 19.425781 -25.929688 19.5625 -26.332031 19.6875 -26.75 C 19.53125 -26.5 19.320312 -26.234375 19.0625 -25.953125 C 18.8125 -25.679688 18.640625 -25.421875 18.546875 -25.171875 C 18.410156 -24.847656 18.332031 -24.535156 18.3125 -24.234375 C 18.300781 -23.929688 18.265625 -23.617188 18.203125 -23.296875 C 18.265625 -23.484375 18.34375 -23.664062 18.4375 -23.84375 C 18.539062 -24.019531 18.640625 -24.207031 18.734375 -24.40625 Z M 16.765625 -21.703125 C 16.890625 -21.929688 16.972656 -22.15625 17.015625 -22.375 C 17.066406 -22.601562 17.144531 -22.832031 17.25 -23.0625 C 17.144531 -22.925781 17.050781 -22.800781 16.96875 -22.6875 C 16.894531 -22.582031 16.828125 -22.476562 16.765625 -22.375 C 16.640625 -22.09375 16.523438 -21.804688 16.421875 -21.515625 C 16.328125 -21.222656 16.21875 -20.9375 16.09375 -20.65625 Z M 16.765625 -21.703125 "/></g></g></g><g fill="#bc9c22" fill-opacity="1"><g transform="translate(287.154369, 198.456851)"><g><path d="M 39.296875 -35.15625 C 39.328125 -34.875 39.195312 -34.660156 38.90625 -34.515625 C 38.613281 -34.367188 38.289062 -34.265625 37.9375 -34.203125 C 37.59375 -34.140625 37.320312 -34.085938 37.125 -34.046875 C 36.707031 -33.953125 36.234375 -33.90625 35.703125 -33.90625 C 35.179688 -33.90625 34.710938 -33.828125 34.296875 -33.671875 C 34.265625 -33.671875 34.210938 -33.617188 34.140625 -33.515625 C 34.078125 -33.421875 34.015625 -33.359375 33.953125 -33.328125 C 33.859375 -33.296875 33.753906 -33.265625 33.640625 -33.234375 C 33.535156 -33.203125 33.429688 -33.171875 33.328125 -33.140625 C 33.015625 -33.078125 32.703125 -33.019531 32.390625 -32.96875 C 32.085938 -32.925781 31.796875 -32.875 31.515625 -32.8125 L 28.046875 -32.234375 C 27.628906 -32.203125 27.140625 -32.1875 26.578125 -32.1875 C 26.023438 -32.1875 25.632812 -31.960938 25.40625 -31.515625 C 25.375 -31.410156 25.359375 -31.296875 25.359375 -31.171875 C 25.359375 -31.046875 25.34375 -30.914062 25.3125 -30.78125 C 25.21875 -30.5 25.085938 -30.222656 24.921875 -29.953125 C 24.765625 -29.679688 24.609375 -29.414062 24.453125 -29.15625 L 22.625 -25.5 C 22.175781 -24.664062 21.773438 -23.800781 21.421875 -22.90625 C 21.066406 -22.007812 20.695312 -21.128906 20.3125 -20.265625 C 20.09375 -19.753906 19.863281 -19.25 19.625 -18.75 C 19.382812 -18.257812 19.179688 -17.738281 19.015625 -17.1875 C 18.921875 -16.78125 18.828125 -16.375 18.734375 -15.96875 C 18.640625 -15.570312 18.507812 -15.148438 18.34375 -14.703125 C 17.539062 -12.773438 16.707031 -10.859375 15.84375 -8.953125 C 14.976562 -7.046875 14.179688 -5.101562 13.453125 -3.125 C 13.191406 -2.414062 12.851562 -1.582031 12.4375 -0.625 C 12.019531 0.332031 11.53125 1.273438 10.96875 2.203125 C 10.414062 3.140625 9.753906 3.894531 8.984375 4.46875 C 8.210938 5.039062 7.347656 5.28125 6.390625 5.1875 C 5.296875 5.09375 4.320312 4.707031 3.46875 4.03125 C 2.625 3.363281 1.945312 2.546875 1.4375 1.578125 C 1.050781 0.847656 0.722656 -0.0078125 0.453125 -1 C 0.179688 -2 0.03125 -2.898438 0 -3.703125 C 0 -3.859375 0 -4.054688 0 -4.296875 C 0 -4.535156 0.0625 -4.71875 0.1875 -4.84375 C 0.507812 -5.195312 0.835938 -5.191406 1.171875 -4.828125 C 1.515625 -4.460938 1.765625 -4.148438 1.921875 -3.890625 C 2.492188 -3.085938 3.066406 -2.226562 3.640625 -1.3125 C 4.222656 -0.40625 4.914062 0.367188 5.71875 1.015625 C 6.101562 1.296875 6.382812 1.4375 6.5625 1.4375 C 6.738281 1.4375 6.96875 1.242188 7.25 0.859375 C 7.863281 0.128906 8.378906 -0.710938 8.796875 -1.671875 C 9.210938 -2.640625 9.5625 -3.570312 9.84375 -4.46875 C 10.582031 -6.707031 11.375 -8.929688 12.21875 -11.140625 C 13.070312 -13.347656 13.929688 -15.554688 14.796875 -17.765625 C 15.628906 -19.972656 16.46875 -22.179688 17.3125 -24.390625 C 18.164062 -26.609375 19.117188 -28.789062 20.171875 -30.9375 C 19.753906 -30.875 19.34375 -30.816406 18.9375 -30.765625 C 18.539062 -30.710938 18.132812 -30.65625 17.71875 -30.59375 C 17.40625 -30.5625 17.125 -30.488281 16.875 -30.375 C 16.632812 -30.269531 16.359375 -30.179688 16.046875 -30.109375 C 15.535156 -29.984375 15.015625 -29.894531 14.484375 -29.84375 C 13.953125 -29.800781 13.414062 -29.75 12.875 -29.6875 C 12.257812 -29.625 11.65625 -29.570312 11.0625 -29.53125 C 10.476562 -29.5 9.878906 -29.566406 9.265625 -29.734375 C 8.878906 -29.859375 8.46875 -30.085938 8.03125 -30.421875 C 7.601562 -30.765625 7.34375 -31.132812 7.25 -31.53125 C 7.15625 -31.9375 7.378906 -32.28125 7.921875 -32.5625 C 8.179688 -32.726562 8.492188 -32.832031 8.859375 -32.875 C 9.234375 -32.925781 9.53125 -32.96875 9.75 -33 C 10.90625 -33.1875 12.050781 -33.375 13.1875 -33.5625 C 14.320312 -33.757812 15.46875 -33.890625 16.625 -33.953125 C 17.101562 -34.015625 17.554688 -34.070312 17.984375 -34.125 C 18.421875 -34.175781 18.863281 -34.25 19.3125 -34.34375 C 19.789062 -34.5 20.269531 -34.59375 20.75 -34.625 C 20.96875 -34.65625 21.242188 -34.660156 21.578125 -34.640625 C 21.921875 -34.628906 22.1875 -34.691406 22.375 -34.828125 C 22.695312 -35.015625 22.898438 -35.269531 22.984375 -35.59375 C 23.066406 -35.914062 23.1875 -36.171875 23.34375 -36.359375 C 23.664062 -36.710938 24.117188 -36.894531 24.703125 -36.90625 C 25.296875 -36.925781 25.800781 -36.875 26.21875 -36.75 C 26.664062 -36.613281 26.976562 -36.441406 27.15625 -36.234375 C 27.332031 -36.023438 27.566406 -35.796875 27.859375 -35.546875 C 28.015625 -35.410156 28.046875 -35.332031 27.953125 -35.3125 C 27.859375 -35.300781 27.921875 -35.265625 28.140625 -35.203125 C 28.304688 -35.171875 28.46875 -35.171875 28.625 -35.203125 C 28.78125 -35.234375 28.925781 -35.265625 29.0625 -35.296875 C 29.34375 -35.296875 29.628906 -35.300781 29.921875 -35.3125 C 30.210938 -35.332031 30.5 -35.363281 30.78125 -35.40625 C 31.9375 -35.46875 33.085938 -35.5 34.234375 -35.5 C 35.390625 -35.5 36.546875 -35.46875 37.703125 -35.40625 C 37.828125 -35.363281 37.953125 -35.332031 38.078125 -35.3125 C 38.210938 -35.300781 38.34375 -35.296875 38.46875 -35.296875 C 38.53125 -35.328125 38.578125 -35.390625 38.609375 -35.484375 C 38.648438 -35.585938 38.734375 -35.625 38.859375 -35.59375 C 39.109375 -35.5625 39.253906 -35.414062 39.296875 -35.15625 Z M 20.984375 -24.015625 C 21.566406 -25.140625 22.101562 -26.300781 22.59375 -27.5 C 23.09375 -28.695312 23.644531 -29.84375 24.25 -30.9375 C 23.738281 -30.132812 23.140625 -29.210938 22.453125 -28.171875 C 21.765625 -27.128906 21.242188 -26.175781 20.890625 -25.3125 C 20.671875 -24.832031 20.390625 -24.160156 20.046875 -23.296875 C 19.710938 -22.429688 19.351562 -21.492188 18.96875 -20.484375 C 18.582031 -19.472656 18.222656 -18.503906 17.890625 -17.578125 C 17.554688 -16.648438 17.257812 -15.882812 17 -15.28125 C 17.226562 -15.789062 17.523438 -16.46875 17.890625 -17.3125 C 18.253906 -18.164062 18.644531 -19.039062 19.0625 -19.9375 C 19.476562 -20.832031 19.851562 -21.65625 20.1875 -22.40625 C 20.53125 -23.15625 20.796875 -23.691406 20.984375 -24.015625 Z M 20.984375 -24.015625 "/></g></g></g><g fill="#bc9c22" fill-opacity="1"><g transform="translate(308.3807, 198.456851)"><g><path d="M 33.4375 -35.0625 C 33.46875 -34.769531 33.320312 -34.523438 33 -34.328125 C 32.675781 -34.140625 32.320312 -34.003906 31.9375 -33.921875 C 31.550781 -33.847656 31.265625 -33.78125 31.078125 -33.71875 C 30.847656 -33.6875 30.628906 -33.660156 30.421875 -33.640625 C 30.210938 -33.628906 30.015625 -33.59375 29.828125 -33.53125 C 29.703125 -33.625 29.539062 -33.625 29.34375 -33.53125 C 29.375 -33.425781 29.359375 -33.34375 29.296875 -33.28125 C 28.878906 -33.09375 28.4375 -32.929688 27.96875 -32.796875 C 27.507812 -32.671875 27.054688 -32.578125 26.609375 -32.515625 C 26.128906 -32.421875 25.648438 -32.304688 25.171875 -32.171875 C 24.691406 -32.046875 24.210938 -31.953125 23.734375 -31.890625 C 23.535156 -31.859375 23.332031 -31.832031 23.125 -31.8125 C 22.914062 -31.800781 22.71875 -31.765625 22.53125 -31.703125 C 22.300781 -31.640625 22.160156 -31.582031 22.109375 -31.53125 C 22.066406 -31.476562 21.96875 -31.421875 21.8125 -31.359375 C 21.394531 -31.203125 20.960938 -31.109375 20.515625 -31.078125 C 20.066406 -31.046875 19.617188 -31 19.171875 -30.9375 C 18.941406 -30.90625 18.695312 -30.847656 18.4375 -30.765625 C 18.1875 -30.679688 17.929688 -30.609375 17.671875 -30.546875 L 16.8125 -30.40625 C 16.8125 -30.28125 16.75 -30.148438 16.625 -30.015625 C 16.625 -30.179688 16.65625 -30.3125 16.71875 -30.40625 C 16.625 -30.40625 16.507812 -30.234375 16.375 -29.890625 C 16.25 -29.554688 16.128906 -29.207031 16.015625 -28.84375 C 15.898438 -28.476562 15.828125 -28.242188 15.796875 -28.140625 L 14.796875 -25.59375 C 14.566406 -24.988281 14.332031 -24.378906 14.09375 -23.765625 C 13.851562 -23.160156 13.625 -22.539062 13.40625 -21.90625 C 13.6875 -22.707031 13.992188 -23.539062 14.328125 -24.40625 C 14.671875 -25.269531 14.953125 -25.957031 15.171875 -26.46875 C 14.921875 -25.851562 14.59375 -24.992188 14.1875 -23.890625 C 13.789062 -22.785156 13.375 -21.648438 12.9375 -20.484375 C 12.507812 -19.316406 12.132812 -18.285156 11.8125 -17.390625 C 11.488281 -16.492188 11.296875 -15.945312 11.234375 -15.75 C 12.296875 -15.882812 13.351562 -15.988281 14.40625 -16.0625 C 15.46875 -16.144531 16.507812 -16.25 17.53125 -16.375 C 18.070312 -16.4375 18.613281 -16.5 19.15625 -16.5625 C 19.707031 -16.632812 20.253906 -16.6875 20.796875 -16.71875 L 21.421875 -16.71875 C 21.484375 -16.75 21.554688 -16.800781 21.640625 -16.875 C 21.722656 -16.957031 21.78125 -16.984375 21.8125 -16.953125 C 22.09375 -16.859375 22.21875 -16.710938 22.1875 -16.515625 C 22.15625 -16.328125 22.046875 -16.15625 21.859375 -16 C 21.535156 -15.738281 21.148438 -15.609375 20.703125 -15.609375 C 20.253906 -15.609375 19.851562 -15.5625 19.5 -15.46875 C 19.3125 -15.4375 19.21875 -15.382812 19.21875 -15.3125 C 19.21875 -15.25 19.101562 -15.171875 18.875 -15.078125 C 18.65625 -14.953125 18.382812 -14.863281 18.0625 -14.8125 C 17.738281 -14.769531 17.445312 -14.71875 17.1875 -14.65625 C 16.738281 -14.613281 16.289062 -14.546875 15.84375 -14.453125 C 15.394531 -14.359375 14.945312 -14.28125 14.5 -14.21875 C 14.1875 -14.1875 13.90625 -14.097656 13.65625 -13.953125 C 13.414062 -13.804688 13.09375 -13.703125 12.6875 -13.640625 C 12.363281 -13.609375 11.953125 -13.582031 11.453125 -13.5625 C 10.960938 -13.550781 10.585938 -13.445312 10.328125 -13.25 C 10.203125 -13.125 10.070312 -12.820312 9.9375 -12.34375 C 9.8125 -11.863281 9.71875 -11.523438 9.65625 -11.328125 L 9.078125 -9.5625 C 8.722656 -8.375 8.34375 -7.210938 7.9375 -6.078125 C 7.539062 -4.941406 7.132812 -3.796875 6.71875 -2.640625 C 6.5 -2.035156 6.273438 -1.421875 6.046875 -0.796875 C 5.828125 -0.171875 5.601562 0.460938 5.375 1.109375 C 5.25 1.523438 5.097656 1.929688 4.921875 2.328125 C 4.742188 2.734375 4.640625 3.160156 4.609375 3.609375 C 4.609375 3.671875 4.644531 3.539062 4.71875 3.21875 C 4.800781 2.894531 4.878906 2.765625 4.953125 2.828125 C 5.015625 2.898438 5.019531 3.046875 4.96875 3.265625 C 4.925781 3.492188 4.921875 3.65625 4.953125 3.75 C 6.003906 3.550781 7.066406 3.15625 8.140625 2.5625 C 9.210938 1.976562 10.210938 1.425781 11.140625 0.90625 C 12.066406 0.425781 12.976562 -0.0703125 13.875 -0.59375 C 14.769531 -1.125 15.671875 -1.628906 16.578125 -2.109375 C 17.023438 -2.335938 17.34375 -2.394531 17.53125 -2.28125 C 17.71875 -2.164062 17.71875 -1.851562 17.53125 -1.34375 C 17.375 -0.894531 17.09375 -0.453125 16.6875 -0.015625 C 16.289062 0.410156 15.914062 0.800781 15.5625 1.15625 C 15.050781 1.632812 14.53125 2.113281 14 2.59375 C 13.46875 3.070312 12.914062 3.535156 12.34375 3.984375 C 11.570312 4.554688 10.707031 5.15625 9.75 5.78125 C 8.789062 6.40625 7.789062 6.867188 6.75 7.171875 C 5.707031 7.484375 4.675781 7.429688 3.65625 7.015625 C 2.71875 6.628906 1.847656 6.007812 1.046875 5.15625 C 0.253906 4.3125 -0.09375 3.34375 0 2.25 C 0.0625 1.800781 0.195312 1.398438 0.40625 1.046875 C 0.613281 0.703125 0.832031 0.335938 1.0625 -0.046875 C 1.09375 -0.140625 1.15625 -0.363281 1.25 -0.71875 C 1.34375 -1.070312 1.445312 -1.414062 1.5625 -1.75 C 1.675781 -2.082031 1.765625 -2.25 1.828125 -2.25 C 1.828125 -2.25 1.800781 -2.160156 1.75 -1.984375 C 1.707031 -1.816406 1.671875 -1.703125 1.640625 -1.640625 L 1.875 -2.359375 C 1.84375 -2.390625 1.859375 -2.53125 1.921875 -2.78125 C 1.984375 -3.039062 2.015625 -3.1875 2.015625 -3.21875 L 2.546875 -4.5625 C 2.703125 -5.007812 2.875 -5.441406 3.0625 -5.859375 C 3.257812 -6.273438 3.421875 -6.691406 3.546875 -7.109375 C 3.898438 -7.941406 4.1875 -8.789062 4.40625 -9.65625 C 4.632812 -10.519531 4.925781 -11.367188 5.28125 -12.203125 C 4.863281 -12.203125 4.414062 -12.359375 3.9375 -12.671875 C 3.457031 -12.992188 3.148438 -13.363281 3.015625 -13.78125 C 2.890625 -14.195312 3.117188 -14.535156 3.703125 -14.796875 C 3.765625 -14.796875 3.796875 -14.8125 3.796875 -14.84375 C 4.117188 -14.9375 4.460938 -14.984375 4.828125 -14.984375 C 5.191406 -14.984375 5.535156 -15 5.859375 -15.03125 C 6.015625 -15.0625 6.15625 -15.097656 6.28125 -15.140625 C 6.414062 -15.191406 6.546875 -15.238281 6.671875 -15.28125 C 6.703125 -15.28125 6.734375 -15.34375 6.765625 -15.46875 C 6.804688 -15.59375 6.84375 -15.640625 6.875 -15.609375 C 6.875 -15.609375 6.851562 -15.539062 6.8125 -15.40625 C 6.78125 -15.28125 6.75 -15.203125 6.71875 -15.171875 C 6.851562 -15.203125 6.988281 -15.457031 7.125 -15.9375 C 7.269531 -16.425781 7.375 -16.78125 7.4375 -17 C 7.40625 -16.90625 7.328125 -16.765625 7.203125 -16.578125 C 7.203125 -16.578125 7.335938 -16.96875 7.609375 -17.75 C 7.878906 -18.53125 8.210938 -19.515625 8.609375 -20.703125 C 9.015625 -21.890625 9.414062 -23.097656 9.8125 -24.328125 C 10.21875 -25.554688 10.570312 -26.628906 10.875 -27.546875 C 11.175781 -28.460938 11.363281 -29.03125 11.4375 -29.25 C 10.914062 -29.1875 10.3125 -29.1875 9.625 -29.25 C 8.9375 -29.3125 8.351562 -29.519531 7.875 -29.875 C 7.394531 -30.226562 7.203125 -30.773438 7.296875 -31.515625 C 7.328125 -31.992188 7.617188 -32.328125 8.171875 -32.515625 C 8.617188 -32.671875 9.171875 -32.738281 9.828125 -32.71875 C 10.484375 -32.707031 11.101562 -32.734375 11.6875 -32.796875 C 12.28125 -32.867188 12.707031 -33.097656 12.96875 -33.484375 C 13.1875 -33.765625 13.304688 -34.066406 13.328125 -34.390625 C 13.347656 -34.710938 13.40625 -35.007812 13.5 -35.28125 C 13.59375 -35.550781 13.832031 -35.75 14.21875 -35.875 C 14.632812 -36.039062 15.085938 -36.035156 15.578125 -35.859375 C 16.078125 -35.679688 16.488281 -35.460938 16.8125 -35.203125 C 17 -35.078125 17.15625 -34.925781 17.28125 -34.75 C 17.414062 -34.570312 17.5625 -34.40625 17.71875 -34.25 C 17.820312 -34.113281 17.875 -33.953125 17.875 -33.765625 L 18.78125 -33.90625 C 19.90625 -34.039062 21.019531 -34.15625 22.125 -34.25 C 23.226562 -34.34375 24.320312 -34.453125 25.40625 -34.578125 C 26.4375 -34.710938 27.476562 -34.84375 28.53125 -34.96875 C 29.582031 -35.09375 30.640625 -35.171875 31.703125 -35.203125 C 31.828125 -35.203125 31.960938 -35.203125 32.109375 -35.203125 C 32.253906 -35.203125 32.375 -35.21875 32.46875 -35.25 C 32.53125 -35.25 32.601562 -35.28125 32.6875 -35.34375 C 32.769531 -35.414062 32.828125 -35.453125 32.859375 -35.453125 C 32.984375 -35.453125 33.097656 -35.429688 33.203125 -35.390625 C 33.316406 -35.359375 33.394531 -35.25 33.4375 -35.0625 Z M 8.890625 -17.96875 C 9.273438 -18.863281 9.59375 -19.804688 9.84375 -20.796875 C 10.101562 -21.785156 10.375 -22.726562 10.65625 -23.625 C 10.4375 -23.019531 10.191406 -22.410156 9.921875 -21.796875 C 9.648438 -21.191406 9.414062 -20.570312 9.21875 -19.9375 L 6.96875 -13.734375 C 7.28125 -14.472656 7.597656 -15.175781 7.921875 -15.84375 C 8.242188 -16.519531 8.566406 -17.226562 8.890625 -17.96875 Z M 11.234375 -16.140625 L 11.671875 -17.296875 L 11.046875 -15.75 C 11.234375 -15.75 11.296875 -15.878906 11.234375 -16.140625 Z M 15.46875 -27.09375 C 15.46875 -27.0625 15.457031 -27.035156 15.4375 -27.015625 C 15.425781 -27.003906 15.421875 -26.984375 15.421875 -26.953125 C 15.421875 -26.953125 15.425781 -26.96875 15.4375 -27 C 15.457031 -27.03125 15.46875 -27.0625 15.46875 -27.09375 Z M 15.46875 -27.09375 C 15.53125 -27.15625 15.5625 -27.1875 15.5625 -27.1875 C 15.5625 -27.1875 15.53125 -27.15625 15.46875 -27.09375 Z M 15.328125 -26.796875 L 15.171875 -26.46875 Z M 15.328125 -26.796875 "/></g></g></g><path stroke-linecap="butt" transform="matrix(0.74999, -0.00392616, 0.00392616, 0.74999, 50.948435, 213.766685)" fill="none" stroke-linejoin="miter" d="M 0.000999488 1.998619 L 382.053144 1.998614 " stroke="#bc9c22" stroke-width="4" stroke-opacity="1" stroke-miterlimit="4"/></svg>